<?xml version="1.0" encoding="UTF-8" standalone="no"?>
<!DOCTYPE svg  PUBLIC '-//W3C//DTD SVG 1.1//EN'  'http://www.w3.org/Graphics/SVG/1.1/DTD/svg11.dtd'>
<svg xmlns="http://www.w3.org/2000/svg">
<defs>
<font id="MatrixScript-Regular" horiz-adv-x="524">
<font-face underline-position="-41" font-weight="400" descent="-200" panose-1="2 11 5 0 0 0 0 0 0 0" units-per-em="1000" unicode-range="U+0020-2122" bbox="-126 -174 774 780" x-height="428" underline-thickness="42" font-family="MatrixScript" ascent="800" cap-height="590"/>
<missing-glyph horiz-adv-x="1000"/>
<glyph glyph-name=".notdef" horiz-adv-x="1000"/>
<glyph glyph-name=".null" horiz-adv-x="0"/>
<glyph glyph-name="nonmarkingreturn" horiz-adv-x="333"/>
<glyph glyph-name="space" horiz-adv-x="233" unicode=" "/>
<glyph glyph-name="exclam" horiz-adv-x="271" unicode="!" d="M178 43q-3 -20 -20 -35t-37 -15q-19 1 -32 13t-13 30q0 1 1 4v3q3 21 21 36t37 15t31 -12t13 -32q0 -1 -1 -3v-4zM253 529l-96 -382h-24v382q0 29 22 51t48 21q22 1 37 -15t15 -39q0 -9 -2 -18z"/>
<glyph glyph-name="quotedbl" horiz-adv-x="358" unicode='&quot;' d="M208 543l-59 -142h-16l-20 142q0 24 17 41t38 17q18 -1 30 -13t13 -30q0 -8 -3 -15zM357 543l-59 -142h-16l-20 142q0 24 17 41t38 17q19 0 31 -13t12 -30q0 -8 -3 -15z"/>
<glyph glyph-name="numbersign" horiz-adv-x="303" unicode="#" d="M233 444h-63l-29 -90h62zM332 502l-24 -58h-40l-30 -90h44l-24 -56h-40l-30 -91h-35l30 91h-62l-31 -91h-35l31 91h-44l23 56h41l29 90h-43l23 58h40l31 91h35l-31 -91h63l30 91h35l-30 -91h44z"/>
<glyph glyph-name="dollar" horiz-adv-x="417" unicode="$" d="M359 193q-8 -59 -50 -91t-101 -36l-15 -106h-37l15 108q-45 6 -75 38t-29 73v7q1 6 1 7q4 22 22 38t38 16q20 -1 33 -13t13 -31q0 -1 -1 -3v-4q-3 -18 -15 -32t-30 -17q-1 0 -3 -1q7 -15 27 -27t48 -12q31 0 57 17t31 49v5q1 2 1 4q0 19 -13 37t-38 39l-84 70 q-22 19 -37 44t-15 51q0 2 1 5v5q9 59 46 89t91 36l17 117h37l-16 -116q36 -5 64 -27t28 -57v-6q-1 -3 -1 -6q-1 -19 -17 -33t-36 -14q-19 0 -30 12t-11 35q5 27 28 38q-17 17 -45 17q-34 0 -58 -17t-28 -45v-4q-1 -3 -1 -4q0 -23 30 -49l96 -81q31 -28 47 -52t16 -55v-9 q-1 -7 -1 -9z"/>
<glyph glyph-name="percent" horiz-adv-x="538" unicode="%" d="M449 112q0 3 1 7v7q0 27 -14 45t-33 18q-23 -1 -43 -23t-25 -54v-8q-1 -6 -1 -7q0 -27 13 -45t34 -19q23 0 43 23t25 56zM265 475q0 3 1 7v7q0 27 -14 45t-34 19q-22 0 -42 -23t-25 -55v-7q-1 -6 -1 -7q0 -27 14 -45t33 -18q23 0 43 23t25 54zM482 112q-7 -48 -42 -82 t-77 -34q-39 0 -65 28t-26 70v9q1 6 1 9q7 46 43 80t79 34q38 0 63 -28t25 -68v-9q-1 -7 -1 -9zM554 590l-464 -604l-19 17l347 551h-138q19 -25 19 -62v-8q-1 -6 -1 -9q-7 -47 -42 -81t-77 -34q-39 0 -65 28t-26 70v8q1 6 1 9q7 47 43 81t79 34h343z"/>
<glyph glyph-name="ampersand" horiz-adv-x="597" unicode="&amp;" d="M584 334q-5 -40 -35 -66t-70 -27l-3 -22q-15 -106 -84 -167t-162 -61q-75 1 -125 43t-50 106v10q1 6 1 10q9 61 55 103t100 52q-40 10 -67 44t-27 75q0 1 1 7v7q6 36 26 65t50 49t66 29q36 10 72 10q66 0 104 -31t39 -81l-32 -15q-7 38 -34 56t-66 18q-53 0 -89 -30 t-41 -75q0 -2 -1 -9v-9q0 -42 28 -67t55 -29h8l-8 -48h-3q-45 -1 -89 -33t-52 -87v-7q-1 -4 -1 -6q0 -44 36 -72t80 -28q60 0 110 46t62 136l1 11h-42q-18 -1 -33 -13t-17 -30l-3 -18h-19l7 43q6 41 36 67t66 27h85q18 1 33 13t17 30l3 18h19z"/>
<glyph glyph-name="quotesingle" horiz-adv-x="213" unicode="&apos;" d="M209 543l-59 -142h-16l-20 142q0 24 17 41t38 17q19 0 31 -13t12 -30q0 -8 -3 -15z"/>
<glyph glyph-name="parenleft" horiz-adv-x="282" unicode="(" d="M238 -68l-12 -17q-77 57 -117 132t-40 173q0 36 5 75q17 127 84 221t175 159l7 -17q-34 -36 -62 -72t-50 -78q-24 -42 -42 -96t-26 -117q-7 -49 -7 -93q1 -83 23 -146t62 -124z"/>
<glyph glyph-name="parenright" horiz-adv-x="282" unicode=")" d="M248 295q-18 -127 -84 -220t-173 -160l-9 17q34 36 62 72t51 78t41 96t27 117q7 49 7 94q0 83 -22 146t-64 123l14 17q76 -55 116 -131t40 -175q0 -35 -6 -74z"/>
<glyph glyph-name="asterisk" horiz-adv-x="338" unicode="*" d="M319 400q-10 -14 -24 -14q-15 0 -25 13l-57 68l13 -92v-4l1 -3q1 -15 -9 -25t-24 -10q-24 0 -24 25q0 8 4 17l39 92l-76 -69q-14 -13 -28 -13q-15 0 -21 14q-2 5 -2 11q0 11 9 20t23 13l95 24l-89 24q-23 7 -23 26q0 9 6 17q10 15 25 15t24 -13l57 -69l-13 91q0 19 9 31 t23 12q24 0 24 -25q0 -9 -4 -18l-39 -91l77 67q13 13 28 13t20 -14q3 -5 3 -11q0 -12 -9 -20t-23 -12l-96 -23l90 -24q23 -5 23 -25q0 -9 -7 -18z"/>
<glyph glyph-name="plus" horiz-adv-x="360" unicode="+" d="M317 211h-105l-16 -108h-46l16 108h-103l5 47h104l15 106h46l-15 -106h105z"/>
<glyph glyph-name="comma" horiz-adv-x="259" unicode="," d="M148 46q-4 -32 -34 -69t-100 -73l-7 13q25 15 43 35t27 43q-34 7 -34 51q3 20 21 36t39 16q19 0 33 -12t13 -32q0 -2 -1 -4v-4z"/>
<glyph glyph-name="hyphen" horiz-adv-x="313" unicode="-" d="M276 213h-221l6 43h221z"/>
<glyph glyph-name="period" horiz-adv-x="259" unicode="." d="M100 98q20 0 33 -12t13 -33q0 -1 -1 -3v-4q-3 -22 -21 -38t-39 -15q-21 0 -33 13t-12 33v3v4q2 22 20 37t40 15z"/>
<glyph glyph-name="slash" horiz-adv-x="436" unicode="/" d="M503 589l-465 -598l-21 18l354 580h132z"/>
<glyph glyph-name="zero" horiz-adv-x="476" unicode="0" d="M297 379q-22 0 -44 -13q-23 -13 -41 -36t-31 -54t-18 -64q-2 -18 -2 -34q0 -57 25 -95t64 -38q22 0 44 13t40 36q18 24 31 54t18 64q3 17 3 34q0 57 -26 95t-63 38zM426 212q-6 -46 -26 -87t-48 -72t-64 -49q-34 -18 -70 -17q-64 -1 -107 53t-43 133q0 19 3 39 q6 46 26 87q19 41 49 72t65 49t71 17q64 0 106 -53t41 -133q0 -19 -3 -39z"/>
<glyph glyph-name="one" horiz-adv-x="317" unicode="1" d="M174 0h-84l50 355h-52l5 38h30q29 1 55 21t30 49h31z"/>
<glyph glyph-name="two" horiz-adv-x="463" unicode="2" d="M381 0h-338l4 27l118 93q27 20 49 40t44 44t38 49q16 26 19 49q0 1 1 6v6q0 31 -23 53t-60 22q-29 0 -47 -6t-32 -16q16 -3 26 -16t10 -30l-1 -4v-4q-4 -24 -23 -41t-43 -17q-23 0 -37 14t-14 35q0 3 1 5v4q7 53 64 89t131 36q60 0 102 -30t43 -86v-10q-1 -6 -1 -10 q-4 -26 -28 -56t-60 -59t-78 -55t-84 -49h231z"/>
<glyph glyph-name="three" horiz-adv-x="463" unicode="3" d="M379 -4q-3 -34 -21 -65t-46 -55t-63 -36q-35 -13 -75 -13q-75 0 -119 40t-47 105l35 13q11 -52 37 -77t74 -25q48 1 88 33t47 85q0 3 1 8v7q0 44 -31 72t-76 29l7 48q16 1 34 9t37 23q18 15 30 36t15 45q0 1 1 8v7q-1 41 -25 70t-69 29q-28 0 -51 -14q23 -13 23 -40 l-1 -4v-4q-4 -24 -23 -41t-43 -17q-22 0 -36 14t-15 35q0 3 1 5v4q3 20 18 40q16 20 40 35t54 23t63 9q69 -1 113 -37t44 -92q0 -10 -2 -21q-5 -43 -39 -81t-81 -54q43 -8 73 -46t30 -87q0 -12 -2 -23z"/>
<glyph glyph-name="four" horiz-adv-x="463" unicode="4" d="M383 0h-63l-23 -167h-84l23 167h-232l4 27q106 90 170 183t106 208h114q-24 -60 -64 -120t-84 -110t-87 -86q-43 -38 -75 -56h155l11 84h84l-11 -84h62z"/>
<glyph glyph-name="five" horiz-adv-x="454" unicode="5" d="M385 7q-5 -37 -23 -69t-46 -58q-28 -25 -64 -39t-76 -14q-30 0 -58 10t-48 27q-22 18 -34 40t-12 45q0 1 1 7v6q4 25 23 42t43 17q23 -1 37 -15t14 -35q0 -2 -1 -5v-4q-2 -19 -17 -35t-35 -20q13 -18 35 -28t47 -10q51 1 91 31t46 83q0 4 1 10v9q1 56 -43 89t-110 33 q-32 0 -66 -9l43 303h277l-12 -82h-235l-16 -121q2 0 12 1h12q94 0 155 -48t61 -131q0 -15 -2 -30z"/>
<glyph glyph-name="six" horiz-adv-x="501" unicode="6" d="M354 164q2 18 2 35q0 48 -18 81t-59 33q-31 0 -65 -18t-46 -47q-2 -6 -5 -18l-5 -20q-4 -31 -4 -57q0 -62 23 -92t64 -30t73 37t40 96zM448 178q-6 -50 -28 -86t-53 -58t-65 -34q-34 -10 -67 -10q-81 0 -121 56t-41 144q0 27 4 57q12 87 42 155t69 112t81 66t79 22 q54 0 84 -24t29 -63v-7q-1 -4 -1 -7q-4 -23 -22 -39t-41 -16q-21 0 -35 13t-13 33q0 2 1 4v5q2 18 14 32t29 19l-3 2q-8 5 -16 7t-22 2q-24 0 -48 -14t-48 -44t-44 -80t-33 -118q24 25 57 41t72 15q60 1 101 -41t41 -112q0 -15 -2 -32z"/>
<glyph glyph-name="seven" horiz-adv-x="417" unicode="7" d="M436 418q-44 -72 -86 -154t-77 -160q-34 -78 -58 -149t-32 -122h-102q20 91 84 209t183 294h-235l-14 -94h-35l25 176h347z"/>
<glyph glyph-name="eight" horiz-adv-x="473" unicode="8" d="M326 127q0 3 1 8v8q0 29 -14 53t-33 39q-19 16 -33 24t-20 11q-49 -24 -79 -56t-35 -79v-5q-1 -4 -1 -6q0 -35 26 -64t75 -29q17 0 35 5q18 4 34 16t28 30t16 45zM386 469q0 3 1 7v7q0 35 -24 55t-61 20q-35 0 -65 -24t-36 -66v-6q-1 -4 -1 -5q0 -25 13 -45t30 -35 t29 -23t19 -10q5 4 17 12t29 24t31 40t18 49zM419 163q-11 -78 -71 -126t-141 -48q-39 0 -69 12q-30 11 -48 31t-26 43t-9 46q0 3 1 8v8q5 35 25 65q21 30 45 51t42 33t25 15q-5 3 -16 13t-26 27t-26 41t-11 49q0 2 1 7v7q9 74 65 115t133 41q58 1 92 -35t34 -80q0 -2 -1 -6 v-6q-5 -32 -21 -60q-17 -28 -35 -46q-18 -20 -32 -30t-19 -14q7 -4 19 -14t28 -30t30 -45q12 -26 12 -55v-8q-1 -6 -1 -9z"/>
<glyph glyph-name="nine" horiz-adv-x="501" unicode="9" d="M358 218q4 31 4 57q0 62 -23 92t-64 30q-41 1 -73 -37t-40 -97q-2 -18 -2 -34q0 -49 18 -81t59 -33q32 -1 66 17t45 47q2 6 5 18t5 21zM439 181q-11 -87 -41 -155t-70 -112t-81 -66q-42 -22 -79 -22q-54 0 -84 24t-29 63q0 1 1 7v7q4 23 22 39t42 16q20 0 34 -14t13 -32 q0 -2 -1 -5v-4q-2 -18 -14 -32t-29 -19l3 -2q8 -5 16 -7t22 -2q24 -1 48 13t48 44t44 81q20 50 33 118q-21 -25 -55 -41t-74 -15q-60 -1 -100 41t-41 111q0 16 2 32q7 51 29 87t52 58t64 34q34 10 67 10q81 0 121 -56t41 -144q0 -27 -4 -57z"/>
<glyph glyph-name="colon" horiz-adv-x="259" unicode=":" d="M145 46q-3 -22 -21 -38t-39 -15q-19 -1 -32 13t-13 33v3v4q3 20 21 36t39 16q18 0 32 -13t14 -32q0 -1 -1 -3v-4zM182 311q-2 -21 -20 -37t-39 -16q-20 0 -33 14t-13 32v4v3q3 21 21 37t39 15q19 0 33 -13t13 -32q0 -1 -1 -3v-4z"/>
<glyph glyph-name="semicolon" horiz-adv-x="259" unicode=";" d="M148 46q-4 -32 -34 -69t-100 -73l-7 13q25 15 43 35t27 43q-34 7 -34 51q3 20 21 36t39 16q19 0 33 -12t13 -32q0 -2 -1 -4v-4zM182 311q-2 -21 -20 -37t-39 -16q-20 0 -33 14t-13 32v4v3q3 21 21 37t39 15q19 0 33 -13t13 -32q0 -1 -1 -3v-4z"/>
<glyph glyph-name="less" horiz-adv-x="368" unicode="&lt;" d="M211 420l-11 -13q-54 31 -75 65t-21 64q0 2 1 6v6q3 22 21 38t39 15q20 0 33 -13t13 -33q0 -1 -1 -3v-4q-2 -18 -16 -32t-31 -18q1 -23 15 -43t33 -35zM369 420l-11 -13q-52 32 -74 65t-22 62q0 4 1 8v6q3 22 21 38t39 15q20 0 33 -13t13 -33q0 -1 -1 -3v-4 q-2 -18 -16 -32t-32 -18q2 -23 16 -43t33 -35z"/>
<glyph glyph-name="equal" horiz-adv-x="313" unicode="=" d="M267 147h-221l7 46h220zM284 275h-221l7 46h221z"/>
<glyph glyph-name="greater" horiz-adv-x="368" unicode="&gt;" d="M220 548q-4 -31 -34 -68t-99 -73l-8 13q23 15 42 35t28 43q-34 8 -34 50q3 22 21 38t39 15q20 0 33 -13t13 -33q0 -1 -1 -3v-4zM378 548q-4 -32 -34 -68t-99 -73l-8 13q23 15 42 35t28 43q-15 4 -25 16t-10 27l1 3v4q3 22 21 38t39 15q20 0 33 -13t13 -33q0 -1 -1 -3v-4z "/>
<glyph glyph-name="question" horiz-adv-x="483" unicode="?" d="M273 43q-2 -21 -19 -36t-37 -15q-19 0 -31 12t-13 32v3v4q3 20 20 35t38 15q19 0 31 -12t12 -30q0 -1 -1 -4v-4zM477 443q-5 -32 -20 -58t-37 -45t-44 -33t-54 -31q-43 -23 -63 -38t-23 -36q0 -11 6 -18t18 -14q1 -1 3 -2l-13 -18q-26 6 -44 22t-18 42v4v4q5 36 30 62 t70 60q42 30 63 52t25 49q0 3 1 7v7q1 41 -29 63t-67 22q-55 0 -99 -30t-64 -76l-31 13q9 27 31 54t53 49t69 34q38 13 76 13q70 0 116 -36t47 -99q0 -11 -2 -23z"/>
<glyph glyph-name="at" horiz-adv-x="625" unicode="@" d="M262 305q-29 0 -58 -39t-41 -95q-6 -27 -6 -51q1 -37 13 -60t33 -23q26 -1 57 39t43 95q5 24 5 46q0 38 -13 63t-33 25zM578 270q0 -52 -24 -102t-62 -90t-83 -63q-44 -23 -81 -23q-19 0 -33 12t-14 34q1 6 1 16t1 11q-21 -34 -53 -54t-58 -20q-40 -1 -64 35t-24 91 q0 26 6 54q8 36 24 69t38 58t46 39t50 14t48 -20t28 -52l9 39q3 13 15 23t25 10q29 0 29 -27q0 -1 -1 -3v-3l-57 -262q0 -2 -1 -5v-4q0 -20 18 -20q17 1 41 19t45 50q22 32 36 72t14 82q0 45 -16 80t-43 58q-28 22 -60 34t-64 12q-46 0 -96 -21t-91 -59l-6 16q43 46 103 76 t124 31q65 -1 110 -21q46 -20 72 -52t37 -68q11 -35 11 -66z"/>
<glyph glyph-name="A" horiz-adv-x="482" unicode="A" d="M308 209l-49 249l-119 -249h168zM465 0h-166l6 41h36l-25 127h-196l-61 -127h47l-6 -41h-132l6 41h37l264 549h46l111 -549h39z"/>
<glyph glyph-name="B" horiz-adv-x="475" unicode="B" d="M350 148q0 4 1 10v10q0 44 -25 76t-65 33h-66l-33 -236h66q44 0 80 29t42 78zM278 549h-45l-32 -231h45q44 0 76 31t39 85q2 12 2 23q1 42 -23 67t-62 25zM436 148q-5 -37 -25 -65q-20 -29 -50 -47t-66 -27t-73 -9h-192l6 41h42l71 508h-41l5 41h170q73 0 119 -32t47 -97 q0 -13 -2 -27q-5 -38 -39 -78t-77 -53q51 -13 79 -51t28 -83q0 -4 -1 -11q-1 -6 -1 -10z"/>
<glyph glyph-name="C" horiz-adv-x="443" unicode="C" d="M482 486q-4 -25 -24 -43t-45 -18q-21 0 -37 15t-16 37q0 3 1 5v4q2 18 16 34t32 21q-9 13 -36 13q-37 0 -73 -20t-65 -58q-29 -36 -48 -82t-26 -98q-5 -35 -5 -67q0 -89 38 -139t110 -51q16 -1 35 5t41 14q5 2 7 3l11 -33q-28 -15 -64 -26t-66 -11q-96 1 -150 71t-54 177 q0 28 4 57q9 60 34 115q26 55 64 98t86 67t101 25q64 0 97 -30t33 -72q0 -2 -1 -7v-6z"/>
<glyph glyph-name="D" horiz-adv-x="529" unicode="D" d="M410 295q5 36 5 68q1 83 -31 135t-98 51h-53l-71 -508h52q40 1 74 21t58 56t41 80q16 46 23 97zM503 295q-7 -57 -31 -111t-60 -96t-84 -64q-48 -24 -103 -24h-195l6 41h42l71 508h-41l5 41h195q95 0 147 -68t52 -171q0 -28 -4 -56z"/>
<glyph glyph-name="E" horiz-adv-x="468" unicode="E" d="M447 141q-21 -64 -84 -107t-141 -43q-76 0 -124 42t-48 106v10q1 6 1 11q9 61 55 103t101 52q-41 13 -68 45t-27 75v8q1 5 1 8q5 33 25 61t49 48q31 20 67 30t73 11q63 0 105 -28t42 -71v-6q-1 -4 -1 -7q-3 -25 -23 -43t-45 -18q-21 0 -37 15t-16 37q0 3 1 5v4 q2 18 14 33t28 21q-20 14 -47 14q-58 -1 -96 -35t-45 -80q0 -3 -1 -8v-8q0 -41 25 -67t57 -29h6q6 -1 8 -1l-8 -48h-10q-48 -2 -89 -34t-49 -86v-7q-1 -4 -1 -6q0 -44 34 -72t79 -28q50 0 92 28t63 78z"/>
<glyph glyph-name="F" horiz-adv-x="387" unicode="F" d="M429 482h-40l10 67h-166l-30 -214h160l-5 -40h-160l-36 -254h41l-5 -41h-168l6 41h42l71 508h-41l5 41h331z"/>
<glyph glyph-name="G" horiz-adv-x="498" unicode="G" d="M430 38q-77 -47 -165 -47q-97 -1 -149 69t-52 176q0 29 4 61q9 61 34 115q26 54 64 98q38 42 88 66t104 25q42 0 76 -12t51 -29l-19 -36q-21 15 -44 22t-57 7q-35 -1 -69 -21t-60 -56q-27 -36 -46 -83t-26 -96q-4 -29 -4 -58q0 -87 35 -147t97 -59q14 0 30 5t26 14 l27 191h-69l6 41h153z"/>
<glyph glyph-name="H" horiz-adv-x="549" unicode="H" d="M479 0h-167l6 41h41l36 258h-199l-36 -258h42l-6 -41h-168l6 41h42l72 508h-42l5 41h167l-5 -41h-41l-30 -210h199l30 210h-42l5 41h168l-5 -41h-42l-72 -508h42z"/>
<glyph glyph-name="I" horiz-adv-x="279" unicode="I" d="M203 0h-168l6 41h42l71 508h-41l5 41h167l-5 -41h-42l-71 -508h41z"/>
<glyph glyph-name="J" horiz-adv-x="277" unicode="J" d="M283 549h-42l-78 -549q-12 -88 -58 -130t-109 -43q-35 -1 -61 21t-36 54l31 20q19 -50 60 -50q34 0 56 24t31 87l80 566h-42l5 41h168z"/>
<glyph glyph-name="K" horiz-adv-x="497" unicode="K" d="M486 596q22 0 38 -15t15 -36q0 -2 -1 -5v-4q-4 -25 -24 -43t-45 -18q-32 0 -45 28l-149 -175l112 -263q7 -16 27 -16q14 0 26 10t14 25l4 24h23l-4 -33q-6 -37 -36 -63t-67 -25q-27 -1 -49 15t-32 40l-96 249l-41 -291h-126l6 41h42l71 508h-41l5 41h125l-40 -288 l190 223q33 39 53 55t45 16z"/>
<glyph glyph-name="L" horiz-adv-x="407" unicode="L" d="M368 0h-338l6 41h42l71 508h-41l5 41h167l-5 -41h-42l-70 -502h172l12 83h40z"/>
<glyph glyph-name="M" horiz-adv-x="708" unicode="M" d="M669 0h-173l6 41h38v415l-205 -456h-55l-73 464l-114 -423h45l-6 -41h-133l6 41h42l138 508h-50l5 41h138l75 -442l198 442h132l-5 -41h-50v-508h47z"/>
<glyph glyph-name="N" horiz-adv-x="531" unicode="N" d="M544 549h-41l-78 -549h-45l-200 429l-54 -388h42l-6 -41h-132l6 41h42l71 508h-41l5 41h89l198 -426l54 385h-41l5 41h131z"/>
<glyph glyph-name="O" d="M341 542q-29 0 -59 -19t-54 -53t-42 -79t-25 -95q-4 -29 -4 -58q-1 -82 31 -136t84 -53q30 0 59 19q29 20 54 54t43 80t24 94q4 29 4 58q0 82 -32 135t-83 53zM499 296q-7 -58 -31 -113t-59 -99t-77 -68q-42 -25 -87 -25q-85 1 -133 69t-48 173q0 31 4 63q9 60 33 116 q23 56 59 98t80 67q44 24 91 24q39 0 71 -19q32 -18 55 -52t35 -78t11 -95q0 -31 -4 -61z" unicode="O"/>
<glyph glyph-name="P" horiz-adv-x="473" unicode="P" d="M407 420q2 13 2 26q0 47 -25 75t-68 28h-73l-37 -258h73q48 0 84 36t44 93zM495 420q-5 -36 -25 -68t-50 -54q-30 -24 -68 -36t-79 -12h-73l-29 -209h42l-6 -41h-168l6 41h42l71 508h-66l5 41h224q75 0 125 -42t50 -107v-10q-1 -6 -1 -11z"/>
<glyph glyph-name="Q" d="M341 542q-29 0 -59 -19t-54 -53t-42 -79t-25 -95q-4 -29 -4 -58q-1 -82 31 -136t84 -53q30 0 59 19q29 20 54 54t43 80t24 94q4 29 4 58q0 82 -32 135t-83 53zM499 296q-7 -48 -23 -94t-42 -84q-25 -38 -56 -67t-65 -44l41 -95q6 -15 28 -15q14 -1 26 9t14 25l4 25h22 l-5 -34q-5 -37 -35 -62t-67 -25q-27 -1 -49 15t-31 39l-38 103q-75 9 -117 76t-42 166q0 31 4 62q9 60 33 116q23 56 59 98t80 67q44 24 91 24q39 0 71 -19q32 -18 55 -52t35 -78t11 -95q0 -31 -4 -61z" unicode="Q"/>
<glyph glyph-name="R" horiz-adv-x="508" unicode="R" d="M393 438q0 3 1 8v7q0 43 -32 69t-75 27h-44l-33 -231h44q48 0 90 34t49 86zM503 75q-5 -37 -35 -63t-67 -25q-27 -1 -49 15t-31 40l-92 236h-25l-39 -278h-126l6 41h42l71 508h-66l5 41h195q36 0 70 -8t62 -24q27 -16 43 -41t16 -59q0 -4 -1 -9q-1 -7 -1 -11 q-9 -60 -55 -98t-107 -53l95 -222q7 -16 27 -16q13 0 25 10t15 25l3 24h24z"/>
<glyph glyph-name="S" horiz-adv-x="418" unicode="S" d="M391 148q-11 -78 -69 -118t-136 -39q-62 1 -106 41t-44 96v9q1 5 1 9q3 24 23 44t45 20q23 0 39 -15t15 -37l-1 -5v-4q-4 -21 -20 -37t-35 -19q-3 -1 -8 -1q7 -22 35 -40t65 -17q41 1 73 23t38 63v6q1 5 1 6q0 47 -61 98l-103 87q-29 24 -47 54t-19 61q0 3 1 7v7 q6 40 24 70q18 31 46 49t60 26q33 8 68 9q48 -1 88 -29t40 -76v-6q-1 -6 -1 -7q-4 -22 -22 -38t-41 -16q-20 0 -34 13t-13 32q0 2 1 5v4q2 16 13 29t25 18q-12 12 -28 20t-36 8q-40 0 -72 -24t-38 -59v-6q-1 -4 -1 -5q1 -18 9 -32t28 -31l119 -102q39 -33 59 -63t20 -69v-9 q-1 -6 -1 -10z"/>
<glyph glyph-name="T" horiz-adv-x="375" unicode="T" d="M438 482h-40l9 64h-121l-71 -505h42l-6 -41h-168l6 41h42l71 505h-122l-9 -64h-40l15 108h407z"/>
<glyph glyph-name="U" horiz-adv-x="513" unicode="U" d="M543 549h-41l-53 -373q-12 -88 -67 -138t-140 -49q-72 1 -116 37t-44 111q0 18 3 39l53 373h-42l5 41h167l-5 -41h-41l-53 -373q-2 -18 -2 -34q-1 -52 25 -78t72 -27q54 1 90 37t45 102l53 373h-42l5 41h133z"/>
<glyph glyph-name="V" horiz-adv-x="478" unicode="V" d="M543 549h-40l-262 -549h-48l-106 549h-39l5 41h169l-5 -41h-38l76 -413l195 413h-38l5 41h131z"/>
<glyph glyph-name="W" horiz-adv-x="681" unicode="W" d="M750 549h-42l-227 -549h-50l-54 405l-168 -405h-49l-72 549h-43l5 41h172l-5 -41h-42l48 -414l180 455h37l55 -455l163 414h-40l5 41h132z"/>
<glyph glyph-name="X" horiz-adv-x="486" unicode="X" d="M-18 51q4 25 24 43t46 17q29 0 43 -23l127 188l-74 247q-4 20 -25 20q-14 0 -26 -9t-14 -25l-5 -30h-23l5 34q6 37 34 63t64 25q28 1 48 -15t27 -40l52 -177l123 184q13 19 34 33t44 14t38 -15t15 -37q0 -2 -1 -4v-5q-4 -25 -24 -43t-45 -17q-15 1 -27 7t-16 16 l-125 -184l73 -251q2 -7 10 -13t18 -7q13 -1 25 9t15 25l4 30h22l-5 -34q-5 -37 -33 -63t-64 -25q-28 0 -49 16t-28 39l-52 180l-126 -186q-12 -18 -33 -33t-44 -15q-22 0 -38 15t-15 37q0 3 1 5v4z"/>
<glyph glyph-name="Y" horiz-adv-x="433" unicode="Y" d="M476 549h-38q-24 -161 -69 -293t-105 -227t-132 -146q-71 -51 -147 -51q-49 0 -80 22t-31 54q0 3 1 5v5q4 24 23 40t42 17q22 1 36 -13t14 -35q0 -2 -1 -4v-5q-1 -12 -9 -22t-16 -17q14 -3 39 -3q41 3 83 29t76 72l-60 572h-39l5 41h175l-5 -41h-44l45 -479q1 3 6 12 q17 30 33 66t37 94t41 136t33 171h-41l5 41h128z"/>
<glyph glyph-name="Z" horiz-adv-x="390" unicode="Z" d="M433 590l-337 -503h228l9 64h40l-20 -151h-369l338 503h-210l-8 -52h-40l19 139h350z"/>
<glyph glyph-name="bracketleft" horiz-adv-x="233" unicode="[" d="M169 -63h-141l101 716h141l-4 -29h-64l-93 -658h64z"/>
<glyph glyph-name="backslash" horiz-adv-x="43" unicode="\"/>
<glyph glyph-name="bracketright" horiz-adv-x="233" unicode="]" d="M145 -63h-141l4 29h65l92 658h-64l4 29h141z"/>
<glyph glyph-name="asciicircum" horiz-adv-x="0" unicode="^"/>
<glyph glyph-name="underscore" horiz-adv-x="467" unicode="_" d="M433 -60h-450l6 42h449z"/>
<glyph glyph-name="grave" horiz-adv-x="305" unicode="`" d="M253 569l-20 -2l-130 48q-7 3 -13 11t-6 21q2 11 12 21t22 10q17 0 35 -18z"/>
<glyph glyph-name="a" horiz-adv-x="496" unicode="a" d="M320 213q3 20 3 39q1 54 -19 91t-47 37q-35 0 -68 -49q-15 -23 -27 -54t-15 -64q-3 -24 -3 -45q0 -54 18 -88t48 -35q16 0 33 13t33 36t28 54t16 65zM469 72q-5 -35 -33 -60t-63 -25q-31 1 -52 21t-21 52v7q1 5 1 7q-21 -38 -59 -62t-69 -25q-54 0 -88 51t-34 129 q0 23 3 46q6 45 24 86t42 72q26 31 56 49t61 17q32 0 62 -25t40 -64l7 48q2 16 16 29t31 13t27 -12t10 -30l-46 -324q0 -14 8 -23t20 -9q14 0 24 10t12 22l5 36h21z"/>
<glyph glyph-name="b" horiz-adv-x="463" unicode="b" d="M335 212q3 21 3 43q0 54 -18 89t-48 35q-16 0 -33 -13t-33 -36q-16 -24 -28 -54t-16 -64q-3 -21 -3 -41q0 -55 19 -91t46 -36q36 0 68 49q16 23 27 54t16 65zM428 212q-6 -45 -24 -86q-18 -40 -43 -72t-55 -50t-61 -17q-31 0 -61 25t-41 64l-7 -48q-2 -17 -16 -29 t-32 -12q-15 0 -26 10t-11 25l1 3v3l68 490q0 31 -27 31q-11 0 -23 -9t-13 -22l-5 -37h-22l5 37q5 36 33 60t64 24q31 0 52 -20t21 -52v-6q-1 -5 -1 -6l-23 -170q26 43 61 66t66 23q55 1 89 -51t34 -130q0 -22 -3 -44z"/>
<glyph glyph-name="c" horiz-adv-x="409" unicode="c" d="M398 301q-4 -30 -23 -48t-44 -18q-22 0 -36 14t-14 36v3v4q3 20 19 36t37 20h14q-9 18 -28 29t-40 11q-53 0 -85 -49t-43 -126q-4 -30 -4 -56q0 -55 20 -87t63 -33q32 -1 58 21t42 58l31 -11q-22 -53 -62 -83t-95 -30q-69 0 -113 52t-44 132q0 19 3 37q6 45 26 85t50 70 q30 31 66 48t74 17q61 -1 95 -35t34 -81v-8q-1 -5 -1 -8z"/>
<glyph glyph-name="d" horiz-adv-x="496" unicode="d" d="M320 213q3 20 3 39q1 54 -19 91t-47 37q-35 0 -68 -49q-15 -23 -27 -54t-15 -64q-3 -24 -3 -45q0 -54 18 -88t48 -35q16 0 33 13t33 36t28 54t16 65zM469 72q-5 -35 -33 -60t-63 -25q-30 0 -52 20t-22 54q0 2 1 6v6q-24 -38 -60 -62t-67 -24q-54 0 -88 51t-34 129 q0 23 3 46q6 45 24 86t42 72q26 31 56 49t61 17t61 -25t41 -64l34 241h84l-73 -517q0 -14 8 -23t20 -9q14 0 24 10t12 22l5 36h21z"/>
<glyph glyph-name="e" horiz-adv-x="411" unicode="e" d="M311 334q0 1 1 7v6q0 23 -13 37t-32 14q-21 0 -39 -14t-34 -40q-14 -24 -24 -54t-13 -58q69 0 109 32t45 70zM270 437q66 1 96 -29t30 -70v-7q-1 -6 -1 -7q-8 -54 -73 -90t-170 -36q-4 -25 -4 -48q0 -58 22 -86t60 -28q31 0 59 24t44 62l32 -9q-20 -53 -60 -87t-106 -34 q-69 0 -109 52t-39 129q0 20 3 40q8 45 26 85t46 72t66 49q37 18 78 18z"/>
<glyph glyph-name="f" horiz-adv-x="339" unicode="f" d="M189 338l-36 -259q-13 -96 -13 -135q0 -42 14 -42q9 0 23 17q15 17 29 47t26 72q12 40 18 85q3 25 3 49q1 58 -17 102t-47 64zM341 378h-124q34 -22 59 -80t25 -128q0 -23 -3 -45q-9 -61 -29 -115q-19 -54 -47 -94t-57 -62t-55 -22q-28 0 -42 22t-13 76q0 53 14 152 l42 296h-58l5 40h59l23 172h84l-23 -172h146z"/>
<glyph glyph-name="g" horiz-adv-x="398" unicode="g" d="M243 377q-37 -1 -68 -31t-37 -73q0 -4 -1 -9v-8q0 -37 22 -62t55 -25q38 1 69 31t37 73q0 3 1 8v9q0 37 -22 62t-56 25zM349 3q-5 -36 -23 -67q-18 -30 -44 -54q-28 -24 -62 -37t-69 -13q-55 0 -95 26t-53 65l35 19q12 -30 40 -48t65 -18q45 0 82 30t43 72q0 3 1 7v7 q0 38 -26 63t-67 25q-13 0 -26 -3t-22 -8q-4 -2 -11 -6q-14 -7 -22 -7q-16 0 -26 11t-10 30q3 15 18 29t36 22q-29 16 -45 44t-16 61v10q1 7 1 10q3 30 19 56t40 46t54 31t62 11h111q19 -1 31 13t15 36h20l-6 -39q-3 -25 -17 -45t-34 -30q16 -29 16 -61v-9q-1 -6 -1 -9 q-5 -38 -30 -71t-63 -52q37 -16 59 -48t22 -74q0 -13 -2 -25z"/>
<glyph glyph-name="h" horiz-adv-x="486" unicode="h" d="M460 72q-6 -35 -34 -60t-63 -25q-31 0 -52 21t-21 52q0 2 1 6v6l36 254q-1 22 -11 34t-28 13q-18 -1 -39 -17t-51 -56l-31 -40l-37 -260h-84l82 590h85l-39 -274l29 38q25 36 55 60t66 23q39 1 64 -25t25 -64v-7q-1 -5 -1 -8l-37 -261q0 -14 8 -23t20 -9q13 0 23 10 t12 22l5 36h22z"/>
<glyph glyph-name="i" horiz-adv-x="256" unicode="i" d="M227 72q-5 -35 -33 -60t-64 -25q-31 0 -52 21t-21 52q0 2 1 6v6l49 346h84l-49 -346q0 -16 8 -24t19 -8q15 0 25 10t11 22l5 36h22zM119 528q3 19 18 32t33 13q16 0 28 -11t11 -27l-1 -3v-4q-2 -18 -17 -31t-33 -13q-17 0 -28 12t-11 32z"/>
<glyph glyph-name="j" horiz-adv-x="237" unicode="j" d="M138 528q2 19 17 32t33 13t28 -12t11 -33q-3 -18 -18 -31t-33 -13q-16 0 -28 11t-11 26l1 4v3zM147 -21q-9 -65 -52 -106t-104 -41q-35 0 -61 22t-35 53l30 18q16 -54 57 -54q32 1 52 23t25 56l66 468h84z"/>
<glyph glyph-name="k" horiz-adv-x="435" unicode="k" d="M415 72q-5 -36 -34 -60t-63 -25q-28 -1 -48 17t-33 44l-78 160l-29 -208h-84l82 590h85l-52 -370l168 105q-23 16 -23 42q0 2 1 5v5q3 25 23 43t45 18q23 0 38 -16t15 -45q-7 -35 -44 -58l-143 -91l86 -167q8 -15 28 -15q14 0 26 10t13 24l4 28h22z"/>
<glyph glyph-name="l" horiz-adv-x="255" unicode="l" d="M227 72q-5 -35 -33 -60t-64 -25q-31 0 -52 21t-21 52q0 2 1 6v6l72 518h84l-72 -518q0 -16 8 -24t19 -8q15 0 25 10t11 22l5 36h22z"/>
<glyph glyph-name="m" horiz-adv-x="715" unicode="m" d="M688 72q-4 -35 -32 -60t-64 -25q-32 -1 -53 21t-21 53q0 3 1 5v6l37 261q0 42 -34 42q-17 0 -37 -16t-47 -47l-19 -23l-41 -289h-84l47 333q0 42 -34 42q-15 0 -39 -18t-45 -45l-18 -23l-41 -289h-84l48 343q0 15 -8 23t-19 9q-13 0 -23 -9t-13 -23l-5 -36h-22l5 36 q5 35 33 60t64 25q30 0 52 -20t22 -52q0 -1 -1 -4v-5l25 29q24 27 51 44t54 17q35 0 59 -27t24 -66l28 34q20 23 48 41t56 18q36 -1 60 -25t24 -60v-7q-1 -6 -1 -7l-38 -266q0 -14 8 -23t20 -9q13 0 23 10t13 22l5 36h21z"/>
<glyph glyph-name="n" d="M498 72q-4 -35 -32 -60t-64 -25q-32 0 -53 21t-21 53q0 3 1 5v6l36 254q0 22 -10 34t-27 13q-19 0 -45 -19t-52 -54l-30 -40l-37 -260h-84l48 343q0 15 -8 23t-19 9q-13 0 -23 -9t-13 -23l-5 -36h-22l5 36q5 35 33 60t64 25q30 0 52 -20t22 -53q0 -2 -1 -6v-6l-5 -26 l29 37q27 37 58 60t68 23q38 1 63 -25t25 -64v-7q-1 -5 -1 -8l-37 -261q0 -14 8 -23t20 -9q13 0 23 10t13 22l5 36h21z" unicode="n"/>
<glyph glyph-name="o" horiz-adv-x="438" unicode="o" d="M277 379q-21 0 -43 -13t-40 -36q-18 -24 -30 -54t-17 -64q-3 -19 -3 -38q0 -56 24 -92t62 -37q44 0 82 49q18 24 30 54t18 64q3 18 3 36q0 57 -24 94t-62 37zM402 212q-8 -46 -26 -87t-46 -72t-62 -49t-70 -17q-64 0 -106 53t-41 133q0 19 3 39q6 46 26 87t48 72t64 49 q34 18 70 17q63 -1 103 -53t40 -131q0 -20 -3 -41z"/>
<glyph glyph-name="p" horiz-adv-x="496" unicode="p" d="M367 212q3 21 3 42q0 55 -18 90t-48 35q-16 0 -33 -13t-33 -36t-28 -54t-16 -64q-3 -20 -3 -40q0 -56 19 -92t47 -36q35 0 67 50t43 118zM459 212q-5 -44 -23 -86t-42 -73t-55 -49q-30 -18 -61 -17q-34 -1 -64 25t-39 65l-34 -244h-84l71 510q0 15 -8 23t-19 9 q-13 0 -23 -9t-13 -23l-5 -36h-22l5 36q5 35 33 60t64 25q32 0 52 -22t21 -55q25 38 61 62t67 24q53 -1 87 -51t34 -127q0 -23 -3 -47z"/>
<glyph glyph-name="q" horiz-adv-x="463" unicode="q" d="M320 213q3 20 3 39q1 56 -19 92t-47 36q-35 0 -67 -48t-43 -119q-3 -24 -3 -45q0 -53 18 -88t48 -35q16 0 33 13q17 12 33 36t28 55t16 64zM351 -167h-84l34 244q-24 -42 -60 -66t-68 -24q-54 -1 -88 51t-34 129q0 23 3 46q7 45 24 86q16 41 42 72t56 49t61 17 q33 -1 61 -25t41 -64l7 48q2 18 16 30t31 12t27 -11t10 -31z"/>
<glyph glyph-name="r" horiz-adv-x="358" unicode="r" d="M209 318l49 60q22 28 42 44t43 16q22 0 37 -16t15 -37q0 -1 -1 -4v-4q-4 -25 -24 -43t-45 -17q-19 1 -33 11t-17 25l-74 -94l-37 -259h-84l48 343q0 32 -27 32q-13 0 -23 -9t-13 -23l-5 -36h-22l5 36q5 35 33 60t64 25q32 0 53 -21t21 -53q0 -3 -1 -5v-6z"/>
<glyph glyph-name="s" horiz-adv-x="380" unicode="s" d="M253 86q0 3 1 10t1 10q0 29 -16 57l-58 104l-108 -154q14 -37 41 -59t59 -22q29 0 53 15t27 39zM337 98q-8 -54 -55 -84t-108 -31q-51 0 -92 35t-59 97l136 193q-5 6 -13 21t-7 34q0 3 1 5v5q4 29 26 49t57 20q24 0 39 -16t15 -38q0 -3 -1 -5v-5q-2 -18 -14 -32t-19 -19 l67 -117q12 -22 20 -47t8 -49v-8q-1 -7 -1 -8z"/>
<glyph glyph-name="t" horiz-adv-x="304" unicode="t" d="M324 378h-115l-43 -306q0 -16 8 -24t19 -8q13 0 24 10t12 22l5 36h22l-5 -36q-5 -35 -33 -60t-64 -25q-31 0 -52 21t-21 52q0 2 1 6v6l43 306h-88l6 40h88l14 104h84l-14 -104h115z"/>
<glyph glyph-name="u" horiz-adv-x="519" unicode="u" d="M493 72q-5 -35 -33 -60t-64 -25q-30 0 -52 20t-22 53q0 2 1 6v6q1 6 3 16t2 14l-27 -36q-29 -39 -57 -61t-65 -22q-39 -1 -63 25t-24 64v8q1 6 1 8l35 255q0 15 -8 23t-19 9q-13 0 -23 -9t-13 -23l-5 -36h-22l5 36q5 35 33 60t64 25q32 0 53 -21t21 -53q0 -3 -1 -5v-6 l-35 -249v-4l-1 -3q0 -17 11 -28t27 -11q19 0 41 17t51 55l29 38l37 260h84l-49 -346q0 -32 27 -32q13 0 23 9t13 23l5 36h22z"/>
<glyph glyph-name="v" horiz-adv-x="427" unicode="v" d="M426 338q-10 -70 -34 -134t-57 -112q-33 -49 -75 -77t-85 -28q-41 0 -62 28t-21 64q0 4 1 8v7l35 249q0 15 -8 23t-19 9q-13 0 -23 -9t-13 -23l-5 -36h-22l5 36q5 35 33 60t64 25q32 0 53 -21t21 -53q0 -3 -1 -5v-6l-32 -225v-6q-1 -4 -1 -6q0 -20 10 -32t28 -13 q26 -1 52 23t48 64t39 85q16 46 22 89q-14 -7 -27 -7q-23 -1 -38 15t-15 39v3v4q5 26 25 44t45 18t42 -19t17 -56q0 -12 -2 -25z"/>
<glyph glyph-name="w" horiz-adv-x="627" unicode="w" d="M612 338q-10 -71 -32 -134q-22 -62 -54 -112t-70 -78q-40 -28 -83 -27q-35 -1 -55 25t-22 60q-60 -85 -125 -85q-39 0 -59 27t-20 64q0 4 1 8v8l35 249q0 15 -8 23t-19 9q-13 0 -23 -9t-13 -23l-5 -36h-22l5 36q5 35 33 60t64 25q32 0 53 -21t21 -53q0 -3 -1 -5v-6 l-32 -224q0 -3 -1 -8v-8q0 -19 8 -31t25 -11q27 0 50 25t41 68l38 264h84l-43 -299v-6q-1 -4 -1 -7q0 -19 8 -32t26 -13q26 0 50 23q24 24 44 62t34 84t20 92q-10 -7 -26 -7q-23 -1 -38 15t-15 39v3v4q5 26 25 44t45 18q27 0 43 -18t16 -56q0 -12 -2 -26z"/>
<glyph glyph-name="x" horiz-adv-x="445" unicode="x" d="M393 429q21 -1 36 -15t15 -34q0 -1 -1 -3v-4q-3 -24 -23 -41t-43 -17q-27 0 -40 22l-73 -106l49 -168q3 -8 10 -14t17 -6q14 -1 26 9t14 26l5 33h22l-6 -38q-5 -35 -34 -59t-63 -25q-30 1 -50 19t-26 42l-25 96l-87 -129q-8 -11 -22 -19t-32 -9q-22 0 -36 14t-14 34 q0 2 1 5v4q4 24 23 40t42 17q27 0 41 -21l72 105l-48 169q-3 8 -11 14t-17 6q-14 0 -26 -10t-13 -24l-5 -34h-22l5 37q5 36 34 60t63 24q31 -1 51 -19t26 -42l25 -95l87 128q8 12 22 20t31 8z"/>
<glyph glyph-name="y" horiz-adv-x="428" unicode="y" d="M418 418q-19 -125 -53 -232q-33 -106 -81 -186t-106 -124t-123 -44q-37 0 -65 18t-29 48q0 2 1 4v4q4 23 23 40t43 17q22 -1 36 -15t14 -35l-1 -3v-4q-3 -23 -19 -35h2q8 -1 18 -1q39 4 78 34t67 75l-102 373q-5 17 -28 17q-13 1 -25 -9t-15 -25l-3 -28h-22l5 36 q5 37 34 61t63 24q30 0 52 -18t29 -43l73 -283q32 82 54 162t35 172h45z"/>
<glyph glyph-name="z" horiz-adv-x="362" unicode="z" d="M329 93q-7 -41 -37 -67t-67 -26h-234l256 332h-106q-35 0 -57 22t-22 57q0 3 1 7v7l5 34h20v-16q1 -11 10 -18t23 -7h242l-255 -331h157q17 1 32 13t17 30l1 8h20z"/>
<glyph glyph-name="braceleft" horiz-adv-x="320" unicode="{" d="M261 -67l-11 -16q-66 27 -94 65t-27 90q0 20 4 44q2 12 6 28t10 35q8 25 9 33v5q1 3 1 5q0 29 -24 46t-67 20l1 16q51 5 79 24t33 54v5q1 5 1 9l-1 19v24q0 25 2 37q10 72 48 120t126 79l6 -16q-51 -27 -69 -61t-28 -102v-10q-1 -10 -1 -13q1 -39 -1 -57t-6 -29 q-6 -21 -22 -37t-33 -28q-18 -12 -30 -17q-12 -6 -17 -8q6 -3 16 -9t24 -18t25 -28q11 -17 12 -36q1 -16 -3 -32t-12 -43q-8 -25 -9 -34q-5 -36 -5 -59q0 -36 12 -60t45 -45z"/>
<glyph glyph-name="bar" horiz-adv-x="0" unicode="|"/>
<glyph glyph-name="braceright" horiz-adv-x="320" unicode="}" d="M293 288q-102 -8 -112 -76v-7q-1 -7 -1 -12v-20q1 -15 1 -24q0 -20 -2 -33q-9 -71 -47 -119t-126 -80l-7 16q49 29 69 63t29 101v7q1 16 1 48q0 35 6 54q6 20 22 36t34 29q18 12 29 18q12 6 17 8q-4 2 -14 8q-10 5 -25 17q-13 12 -25 28t-13 37q0 15 4 32t11 41 q8 27 9 36q5 36 5 59q0 35 -12 59t-45 45l12 16q65 -27 93 -65t27 -90q0 -20 -4 -44q-1 -13 -5 -26l-12 -39q-7 -23 -8 -29v-5q-1 -3 -1 -5q-1 -30 23 -47t68 -21z"/>
<glyph glyph-name="asciitilde" horiz-adv-x="0" unicode="~"/>
<glyph glyph-name="nbspace" horiz-adv-x="233" unicode=" "/>
<glyph glyph-name="exclamdown" horiz-adv-x="271" unicode="¡" d="M178 -75q0 -29 -22 -51t-48 -21q-22 -1 -37 15t-15 39q0 9 2 18l96 383h24v-383zM234 411q-2 -21 -20 -36t-38 -15q-19 0 -31 12t-12 32v3v4q3 20 20 35t37 15q19 -1 32 -13t13 -30q0 -1 -1 -3v-4z"/>
<glyph glyph-name="cent" horiz-adv-x="433" unicode="¢" d="M428 466q-3 -20 -20 -36t-38 -16q-19 0 -32 13t-13 32v3v4q2 16 12 28t22 16q-9 5 -23 5h-6q-5 -1 -8 -1q-56 -8 -98 -66t-53 -134q-4 -28 -4 -54q0 -69 30 -108t86 -39q15 0 35 6t33 12l12 -32q-22 -13 -49 -21t-50 -10h-2l-15 -108h-38l16 109q-66 11 -102 65t-36 132 q0 23 4 48q5 44 23 86t45 76t61 55q34 22 73 28l17 116h38l-16 -114h2q48 -2 72 -26t23 -57q0 -1 -1 -6v-6z"/>
<glyph glyph-name="sterling" horiz-adv-x="435" unicode="£" d="M321 601q45 1 75 -25t37 -67l-32 -12q-5 25 -25 41t-48 16q-42 0 -70 -36t-38 -108l-12 -82h96l-6 -40h-95l-34 -241h177l12 83h40l-19 -130h-342l6 41h41l34 247h-40l5 40h41l12 82q12 89 64 140t121 51z"/>
<glyph glyph-name="currency" horiz-adv-x="458" unicode="¤" d="M371 0h-346l3 23l190 221q18 22 34 42t32 46t26 53q12 28 16 55q0 3 1 8v8q-1 39 -25 68t-61 29q-29 -1 -45 -7t-29 -16q17 -4 27 -16t10 -30l-1 -4v-4q-3 -24 -23 -41t-44 -17q-22 0 -36 14t-14 36v4v4q8 54 62 90t133 35q59 -1 101 -37t41 -99q0 -12 -2 -25 q-6 -46 -41 -92t-111 -120l-145 -141h259z"/>
<glyph glyph-name="yen" horiz-adv-x="447" unicode="¥" d="M361 203h107l-5 -43h-120q-12 -29 -25 -56h137l-7 -42h-154q-62 -110 -138 -170t-159 -60q-50 0 -84 22t-34 55l1 5v4q4 24 23 40t43 17q21 1 35 -13t14 -35q0 -2 -1 -4v-5q-1 -12 -8 -22t-16 -17q10 -5 30 -5q47 0 92 27t82 76l-9 85h-162l7 42h151l-6 56h-137l5 43h127 l-36 346h-39l5 41h175l-5 -41h-43l45 -479q2 4 6 11q16 31 32 67t38 94q20 57 40 136t34 171h-42l5 41h128l-5 -41h-37q-29 -190 -90 -346z"/>
<glyph glyph-name="brokenbar" horiz-adv-x="270" unicode="¦" d="M143 3h-44l40 280h44zM197 388h-44l40 280h44z"/>
<glyph glyph-name="section" horiz-adv-x="501" unicode="§" d="M358 164q2 17 2 34q0 48 -18 82t-59 33q-32 0 -66 -18t-46 -47q-2 -6 -5 -17t-4 -21q-5 -32 -5 -59q0 -61 23 -91t64 -29q42 -1 74 37t40 96zM451 178q-7 -50 -29 -86t-52 -58t-64 -34q-34 -10 -68 -10q-80 0 -121 56t-41 144q0 28 4 57q12 87 42 155t69 112t81 66t79 22 q53 0 83 -24t30 -63v-7q-1 -4 -1 -7q-4 -23 -22 -39t-41 -16q-20 0 -34 13t-14 33q0 2 1 4v5q3 18 15 32t28 19l-3 2q-9 5 -17 7t-21 2q-23 0 -47 -14t-48 -44q-24 -29 -44 -79t-33 -119q23 25 56 41t73 15q58 1 100 -41t42 -111q0 -16 -3 -33z"/>
<glyph glyph-name="dieresis" horiz-adv-x="302" unicode="¨" d="M325 623q-1 -19 -17 -32t-35 -13q-17 0 -29 11t-11 27v4v3q2 19 18 33t35 14q17 0 28 -13t11 -34zM180 624q-2 -18 -18 -32t-34 -14q-17 0 -29 12t-12 27l1 4v3q2 19 18 33t34 14q16 0 28 -13t12 -34z"/>
<glyph glyph-name="copyright" horiz-adv-x="640" unicode="©" d="M471 407q-3 -17 -17 -29t-32 -12q-17 0 -27 11t-10 30q4 20 20 27q-1 0 -5 2q-4 1 -9 1q-21 1 -42 -11t-37 -32t-28 -44t-16 -51q-2 -16 -2 -31q0 -50 24 -78t68 -28q14 0 32 4t24 10l10 -26q-14 -8 -42 -16t-48 -7q-65 0 -101 41t-36 104q0 13 2 27q5 33 21 65t41 56 t56 38t66 14q43 0 65 -18t23 -47zM592 297q3 19 3 37q0 44 -16 84q-17 40 -45 70t-67 45q-39 16 -85 16q-50 1 -98 -19t-87 -54t-65 -81q-26 -46 -33 -98q-3 -19 -3 -37q0 -46 16 -86t44 -68q28 -30 68 -46t86 -17q50 -1 98 19t86 55q39 35 65 81t33 99zM631 297 q-9 -60 -39 -114q-30 -55 -74 -95t-100 -62t-114 -23q-52 0 -98 19q-46 20 -79 54t-51 80t-19 100q0 20 3 41q8 60 38 113q30 54 75 94t101 62t113 23q53 0 98 -19q45 -20 79 -54t52 -80t18 -98q0 -21 -3 -41z"/>
<glyph glyph-name="ordfeminine" horiz-adv-x="0" unicode="ª"/>
<glyph glyph-name="guillemotleft" horiz-adv-x="354" unicode="«" d="M343 355l-92 -143l52 -144l-124 144zM218 355l-92 -143l52 -144l-124 144z"/>
<glyph glyph-name="logicalnot" horiz-adv-x="0" unicode="¬"/>
<glyph glyph-name="minus" horiz-adv-x="333" unicode="­" d="M276 213h-221l6 43h221z"/>
<glyph glyph-name="minus" horiz-adv-x="333" unicode="−" d="M276 213h-221l6 43h221z"/>
<glyph glyph-name="registered" horiz-adv-x="640" unicode="®" d="M407 382v4l1 4q0 20 -17 34t-41 14h-21l-16 -119h20q25 -1 48 17t26 46zM480 181q-3 -21 -21 -37t-41 -16q-16 0 -30 10t-20 23l-50 122h-10l-21 -149h-81l4 32h24l39 272h-39l4 31h116q46 0 80 -19t34 -56v-6q-1 -5 -1 -6q-5 -34 -30 -56t-61 -31l53 -117q3 -7 13 -7 q6 1 11 5t6 10l3 17h21zM592 297q3 19 3 37q0 44 -16 84q-17 40 -45 70t-67 45q-39 16 -85 16q-50 1 -98 -19t-87 -54t-65 -81q-26 -46 -33 -98q-3 -19 -3 -37q0 -46 16 -86t44 -68q28 -30 68 -46t86 -17q50 -1 98 19t86 55q39 35 65 81t33 99zM631 297q-9 -60 -39 -114 q-30 -55 -74 -95t-100 -62t-114 -23q-52 0 -98 19q-46 20 -79 54t-51 80t-19 100q0 20 3 41q8 60 38 113q30 54 75 94t101 62t113 23q53 0 98 -19q45 -20 79 -54t52 -80t18 -98q0 -21 -3 -41z"/>
<glyph glyph-name="macron" horiz-adv-x="250" unicode="¯" d="M278 621h-174l7 48h173z"/>
<glyph glyph-name="degree" horiz-adv-x="473" unicode="°" d="M326 127q0 3 1 8v8q0 29 -14 53t-33 39q-19 16 -33 24t-20 11q-49 -24 -79 -56t-35 -79v-5q-1 -4 -1 -6q0 -35 26 -64t75 -29q17 0 35 5q18 4 34 16t28 30t16 45zM386 469q0 3 1 7v7q0 35 -24 55t-61 20q-35 0 -65 -24t-36 -66v-6q-1 -4 -1 -5q0 -25 13 -45t30 -35 t29 -23t19 -10q5 4 17 12t29 24t31 40t18 49zM419 163q-11 -78 -71 -126t-141 -48q-39 0 -69 12q-30 11 -48 31t-26 43t-9 46q0 3 1 8v8q5 35 25 65q21 30 45 51t42 33t25 15q-5 3 -16 13t-26 27t-26 41t-11 49q0 2 1 7v7q9 74 65 115t133 41q58 1 92 -35t34 -80q0 -2 -1 -6 v-6q-5 -32 -21 -60q-17 -28 -35 -46q-18 -20 -32 -30t-19 -14q7 -4 19 -14t28 -30t30 -45q12 -26 12 -55v-8q-1 -6 -1 -9z"/>
<glyph glyph-name="plusminus" horiz-adv-x="0" unicode="±"/>
<glyph glyph-name="twosuperior" horiz-adv-x="389" unicode="²" d="M303 248h-224l2 11l121 136l1 1q25 29 41 55t20 53v4q1 2 1 4q-1 20 -13 36t-31 15q-11 1 -19 -1t-15 -5l-1 -1q15 -9 15 -25q0 -1 -1 -3v-4q0 -14 -14 -26t-31 -12q-15 0 -25 10t-10 28q6 34 40 56t83 22q38 0 64 -22t26 -62v-7q-1 -6 -1 -7q-4 -26 -28 -56t-65 -69 l-77 -71h150z"/>
<glyph glyph-name="threesuperior" horiz-adv-x="355" unicode="³" d="M307 345q-6 -41 -42 -71t-85 -29q-47 1 -74 25t-30 65l29 9q12 -59 64 -59q26 0 49 18t27 45q1 27 -15 44t-41 18q-3 0 -9 1l5 35q5 0 12 2q21 4 37 20t19 38v5q1 3 1 4q0 21 -14 36t-41 15q-7 0 -18 -3l-2 -1q9 -8 9 -25q-2 -16 -15 -27t-29 -11q-14 0 -24 9t-9 22l1 4 v3q2 26 34 45t72 19q46 0 73 -20t27 -56v-7q-1 -4 -1 -7q-3 -21 -21 -43t-43 -33q23 -8 39 -29t16 -48v-6q-1 -6 -1 -7z"/>
<glyph glyph-name="acute" horiz-adv-x="313" unicode="´" d="M257 645q-2 -13 -11 -21t-18 -11l-143 -48l-19 3l125 90q23 18 40 18q12 0 19 -9t7 -22z"/>
<glyph glyph-name="mu" horiz-adv-x="519" unicode="µ" d="M128 343q0 15 -8 23t-19 9q-13 0 -23 -9t-13 -23l-5 -36h-22l5 36q5 35 33 60t64 25q32 0 53 -21t21 -53q0 -3 -1 -5v-6l-35 -249v-4l-1 -3q0 -17 11 -28t27 -11q19 0 41 17t51 55l29 38l37 260h84l-49 -346q0 -32 27 -32q13 0 23 9t13 23l5 36h22l-5 -36q-5 -35 -33 -60 t-64 -25q-30 0 -52 20t-22 53q0 2 1 6v6q1 6 3 16t2 14l-27 -36q-29 -39 -57 -61t-65 -22q-6 0 -15 2h-2l-21 -152h-84z"/>
<glyph glyph-name="paragraph" horiz-adv-x="489" unicode="¶" d="M380 -168h-88l100 716h-74l-100 -716h-88l5 40h42l55 388q-66 0 -106 40t-40 100q0 12 2 25q4 33 21 63t43 53t56 35q31 12 63 13h215l-5 -40h-42l-96 -677h42z"/>
<glyph glyph-name="cedilla" horiz-adv-x="210" unicode="¸" d="M163 -88q-5 -35 -43 -55t-82 -20h-16l3 24h26q17 0 30 9t15 25q0 16 -10 25t-25 9h-48l102 90h52l-58 -50q23 -1 39 -15t16 -34l-1 -4v-4z"/>
<glyph glyph-name="onesuperior" horiz-adv-x="295" unicode="¹" d="M187 249h-61l40 283h-31l4 31h23q16 -1 30 11t16 30h29z"/>
<glyph glyph-name="ordmasculine" horiz-adv-x="0" unicode="º"/>
<glyph glyph-name="guillemotright" horiz-adv-x="354" unicode="»" d="M66 355l123 -143l-163 -144l92 144zM191 355l123 -143l-163 -144l92 144z"/>
<glyph glyph-name="onequarter" horiz-adv-x="758" unicode="¼" d="M627 95h-38l-13 -95h-60l13 95h-142l3 23q63 52 101 108t63 126h79q-15 -34 -37 -68t-50 -63q-26 -31 -51 -53t-45 -36h84l7 48h60l-7 -48h38zM596 589l-441 -598l-21 18l354 580h108zM187 249h-61l40 283h-31l4 31h23q16 -1 30 11t16 30h29z"/>
<glyph glyph-name="onehalf" horiz-adv-x="783" unicode="½" d="M655 0h-224l2 12l120 136q25 28 42 54t21 55v4q1 2 1 4q-1 19 -13 35t-31 16q-13 0 -19 -2l-15 -5l-1 -1q15 -9 15 -31q-3 -15 -17 -27t-29 -12t-25 10t-10 23l1 3v3q5 33 39 55t83 22q37 0 63 -22t26 -58v-8q-1 -5 -1 -9q-3 -27 -27 -57t-65 -68l-78 -72h150zM596 589 l-441 -598l-21 18l354 580h108zM187 249h-61l40 283h-31l4 31h23q16 -1 30 11t16 30h29z"/>
<glyph glyph-name="threequarters" horiz-adv-x="768" unicode="¾" d="M307 345q-6 -41 -42 -71t-85 -29q-47 1 -74 25t-30 65l29 9q12 -59 64 -59q26 0 49 18t27 45q1 27 -15 44t-41 18q-3 0 -9 1l5 35q5 0 12 2q21 4 37 20t19 38v5q1 3 1 4q0 21 -14 36t-41 15q-7 0 -18 -3l-2 -1q9 -8 9 -25q-2 -16 -15 -27t-29 -11q-14 0 -24 9t-9 22l1 4 v3q2 26 34 45t72 19q46 0 73 -20t27 -56v-7q-1 -4 -1 -7q-3 -21 -21 -43t-43 -33q23 -8 39 -29t16 -48v-6q-1 -6 -1 -7zM695 95h-37l-14 -95h-60l14 95h-143l3 23q63 50 100 106t64 128h78q-16 -34 -38 -68t-48 -63q-26 -31 -50 -53q-25 -22 -46 -36h85l6 48h60l-6 -48h37z M668 589l-440 -598l-21 18l354 580h107z"/>
<glyph glyph-name="questiondown" horiz-adv-x="483" unicode="¿" d="M429 2q-9 -27 -31 -54q-22 -26 -52 -48q-31 -22 -69 -35t-77 -13q-70 0 -116 36t-46 99q0 10 2 23q5 32 20 58t36 44q21 20 44 34t54 30q43 24 63 40t23 35q0 12 -6 19t-19 14l-2 1l13 18q26 -6 44 -21t19 -41l-1 -5v-5q-6 -36 -30 -62t-70 -60q-42 -29 -63 -51t-25 -50 v-7q-1 -4 -1 -7q0 -40 30 -63t67 -23q54 0 98 31t64 75zM343 410q-1 -20 -19 -36t-38 -15q-19 0 -31 13t-12 31v3v4q3 21 20 36t37 15t32 -12t12 -30q0 -2 -1 -5v-4z"/>
<glyph glyph-name="Agrave" horiz-adv-x="482" unicode="À" d="M308 209l-49 249l-119 -249h168zM465 0h-166l6 41h36l-25 127h-196l-61 -127h47l-6 -41h-132l6 41h37l264 549h46l111 -549h39zM368 652l-20 -2l-130 48q-7 3 -13 11t-6 21q1 12 11 22t23 9q17 0 35 -18z"/>
<glyph glyph-name="Aacute" horiz-adv-x="482" unicode="Á" d="M308 209l-49 249l-119 -249h168zM465 0h-166l6 41h36l-25 127h-196l-61 -127h47l-6 -41h-132l6 41h37l264 549h46l111 -549h39zM463 728q-2 -13 -11 -21t-18 -11l-143 -48l-19 3l125 90q23 18 40 18q12 0 19 -9t7 -22z"/>
<glyph glyph-name="Acircumflex" horiz-adv-x="482" unicode="Â" d="M308 209l-49 249l-119 -249h168zM465 0h-166l6 41h36l-25 127h-196l-61 -127h47l-6 -41h-132l6 41h37l264 549h46l111 -549h39zM450 650l-18 -11l-115 65l-131 -65l-17 11l158 130z"/>
<glyph glyph-name="Atilde" horiz-adv-x="482" unicode="Ã" d="M308 209l-49 249l-119 -249h168zM465 0h-166l6 41h36l-25 127h-196l-61 -127h47l-6 -41h-132l6 41h37l264 549h46l111 -549h39zM447 716q-15 -34 -42 -54t-57 -19q-14 0 -24 5t-21 14q-16 13 -28 13q-12 1 -24 -9t-19 -23l-21 3q15 34 42 54t57 20q18 0 28 -5t20 -15 q13 -13 24 -13q12 0 24 10t21 23z"/>
<glyph glyph-name="Adieresis" horiz-adv-x="482" unicode="Ä" d="M308 209l-49 249l-119 -249h168zM465 0h-166l6 41h36l-25 127h-196l-61 -127h47l-6 -41h-132l6 41h37l264 549h46l111 -549h39zM440 686q-2 -19 -18 -32t-34 -13q-16 0 -28 11t-12 27v4v3q2 19 18 33t35 14q17 0 28 -13t11 -34zM295 687q-1 -19 -17 -33t-35 -13 q-17 -1 -29 11t-11 28v4v3q1 19 17 33t35 14q17 0 29 -13t11 -34z"/>
<glyph glyph-name="Aring" horiz-adv-x="482" unicode="Å" d="M263 565q-19 7 -30 23t-11 38q0 2 1 6v6q3 32 29 54t57 22q29 0 48 -19t19 -46q0 -2 -1 -6v-5q-3 -22 -17 -40t-33 -28l107 -529h39l-6 -41h-166l6 41h36l-25 127h-196l-61 -127h47l-6 -41h-132l6 41h37zM332 638q0 33 -29 33q-13 0 -24 -10t-13 -23q0 -16 8 -25t20 -9 q14 0 25 10t13 24zM308 209l-49 249l-119 -249h168z"/>
<glyph glyph-name="AE" horiz-adv-x="718" unicode="Æ" d="M366 455l-198 -246h150q8 17 26 39t34 31l11 84q-25 31 -25 71q0 11 2 21zM698 141q-21 -64 -84 -107t-141 -43q-73 0 -123 41t-49 105q0 11 2 23v8h-163l-102 -127h45l-5 -41h-133l6 41h37l440 549h70q10 3 33 7t48 4q67 1 107 -27t40 -72v-7q-1 -5 -1 -6 q-3 -25 -23 -43t-46 -18q-24 0 -38 16t-14 38v3v4q3 18 15 33t27 21q-20 14 -50 14q-54 0 -92 -35t-46 -81q0 -3 -1 -8v-8q-1 -41 25 -67t57 -28h7l7 -1l-8 -48q-8 0 -10 -1q-47 -2 -89 -34t-48 -85q0 -2 -1 -7v-8q-1 -42 33 -70t78 -28q52 0 94 28t62 78z"/>
<glyph glyph-name="Ccedilla" horiz-adv-x="443" unicode="Ç" d="M197 3q-65 24 -99 88t-34 148q0 28 4 57q9 60 34 115q26 55 64 98t86 67t101 25q64 0 97 -30t33 -72q0 -2 -1 -7v-6q-4 -25 -24 -43t-45 -18q-21 0 -37 15t-16 37q0 3 1 5v4q2 18 16 34t32 21q-9 13 -36 13q-37 0 -73 -20t-65 -58q-29 -36 -48 -82t-26 -98q-5 -35 -5 -67 q0 -89 38 -139t110 -51q16 -1 35 5t41 14q5 2 7 3l11 -33q-28 -15 -64 -26t-66 -11q-11 0 -31 2l-28 -24q23 -1 39 -15t16 -34l-1 -4v-4q-5 -35 -43 -55t-82 -20h-16l3 24h26q17 0 30 9t15 25q0 16 -10 25t-25 9h-48z"/>
<glyph glyph-name="Egrave" horiz-adv-x="468" unicode="È" d="M447 141q-21 -64 -84 -107t-141 -43q-76 0 -124 42t-48 106v10q1 6 1 11q9 61 55 103t101 52q-41 13 -68 45t-27 75v8q1 5 1 8q5 33 25 61t49 48q31 20 67 30t73 11q63 0 105 -28t42 -71v-6q-1 -4 -1 -7q-3 -25 -23 -43t-45 -18q-21 0 -37 15t-16 37q0 3 1 5v4 q2 18 14 33t28 21q-20 14 -47 14q-58 -1 -96 -35t-45 -80q0 -3 -1 -8v-8q0 -41 25 -67t57 -29h6q6 -1 8 -1l-8 -48h-10q-48 -2 -89 -34t-49 -86v-7q-1 -4 -1 -6q0 -44 34 -72t79 -28q50 0 92 28t63 78zM387 652l-20 -2l-130 48q-7 3 -13 11t-6 21q2 12 12 22t22 9 q17 0 35 -18z"/>
<glyph glyph-name="Eacute" horiz-adv-x="468" unicode="É" d="M447 141q-21 -64 -84 -107t-141 -43q-76 0 -124 42t-48 106v10q1 6 1 11q9 61 55 103t101 52q-41 13 -68 45t-27 75v8q1 5 1 8q5 33 25 61t49 48q31 20 67 30t73 11q63 0 105 -28t42 -71v-6q-1 -4 -1 -7q-3 -25 -23 -43t-45 -18q-21 0 -37 15t-16 37q0 3 1 5v4 q2 18 14 33t28 21q-20 14 -47 14q-58 -1 -96 -35t-45 -80q0 -3 -1 -8v-8q0 -41 25 -67t57 -29h6q6 -1 8 -1l-8 -48h-10q-48 -2 -89 -34t-49 -86v-7q-1 -4 -1 -6q0 -44 34 -72t79 -28q50 0 92 28t63 78zM438 728q-2 -13 -11 -21t-18 -11l-143 -48l-19 3l125 90q23 18 40 18 q12 0 19 -9t7 -22z"/>
<glyph glyph-name="Ecircumflex" horiz-adv-x="468" unicode="Ê" d="M447 141q-21 -64 -84 -107t-141 -43q-76 0 -124 42t-48 106v10q1 6 1 11q9 61 55 103t101 52q-41 13 -68 45t-27 75v8q1 5 1 8q5 33 25 61t49 48q31 20 67 30t73 11q63 0 105 -28t42 -71v-6q-1 -4 -1 -7q-3 -25 -23 -43t-45 -18q-21 0 -37 15t-16 37q0 3 1 5v4 q2 18 14 33t28 21q-20 14 -47 14q-58 -1 -96 -35t-45 -80q0 -3 -1 -8v-8q0 -41 25 -67t57 -29h6q6 -1 8 -1l-8 -48h-10q-48 -2 -89 -34t-49 -86v-7q-1 -4 -1 -6q0 -44 34 -72t79 -28q50 0 92 28t63 78zM462 650l-18 -11l-115 65l-131 -65l-17 11l158 130z"/>
<glyph glyph-name="Edieresis" horiz-adv-x="468" unicode="Ë" d="M447 141q-21 -64 -84 -107t-141 -43q-76 0 -124 42t-48 106v10q1 6 1 11q9 61 55 103t101 52q-41 13 -68 45t-27 75v8q1 5 1 8q5 33 25 61t49 48q31 20 67 30t73 11q63 0 105 -28t42 -71v-6q-1 -4 -1 -7q-3 -25 -23 -43t-45 -18q-21 0 -37 15t-16 37q0 3 1 5v4 q2 18 14 33t28 21q-20 14 -47 14q-58 -1 -96 -35t-45 -80q0 -3 -1 -8v-8q0 -41 25 -67t57 -29h6q6 -1 8 -1l-8 -48h-10q-48 -2 -89 -34t-49 -86v-7q-1 -4 -1 -6q0 -44 34 -72t79 -28q50 0 92 28t63 78zM459 686q-1 -19 -17 -32t-35 -13q-17 0 -29 11t-11 27v4v3q2 19 18 33 t35 14q17 0 28 -13t11 -34zM314 687q-2 -19 -18 -33t-34 -13q-16 -1 -28 11t-12 28v4v3q2 19 18 33t34 14q16 0 28 -13t12 -34z"/>
<glyph glyph-name="Igrave" horiz-adv-x="279" unicode="Ì" d="M203 0h-168l6 41h42l71 508h-41l5 41h167l-5 -41h-42l-71 -508h41zM271 652l-20 -2l-130 48q-7 3 -13 11t-6 21q2 12 12 22t22 9q17 0 35 -18z"/>
<glyph glyph-name="Iacute" horiz-adv-x="279" unicode="Í" d="M203 0h-168l6 41h42l71 508h-41l5 41h167l-5 -41h-42l-71 -508h41zM356 728q-2 -13 -11 -21t-18 -11l-143 -48l-19 3l125 90q23 18 40 18q12 0 19 -9t7 -22z"/>
<glyph glyph-name="Icircumflex" horiz-adv-x="279" unicode="Î" d="M203 0h-168l6 41h42l71 508h-41l5 41h167l-5 -41h-42l-71 -508h41zM364 650l-18 -11l-115 65l-131 -65l-17 11l158 130z"/>
<glyph glyph-name="Idieresis" horiz-adv-x="279" unicode="Ï" d="M203 0h-168l6 41h42l71 508h-41l5 41h167l-5 -41h-42l-71 -508h41zM350 686q-2 -19 -18 -32t-34 -13q-16 0 -28 11t-12 27v4v3q2 19 18 33t35 14q17 0 28 -13t11 -34zM205 687q-1 -19 -17 -33t-35 -13q-17 -1 -29 11t-11 28v4v3q1 19 17 33t35 14q17 0 29 -13t11 -34z "/>
<glyph glyph-name="Eth" horiz-adv-x="554" unicode="Ð" d="M435 295q5 36 5 68q0 83 -32 135t-97 51h-53l-33 -235h75l-6 -42h-75l-32 -231h52q41 1 75 21t58 56t40 80q16 46 23 97zM528 295q-8 -57 -32 -111t-59 -96q-36 -42 -84 -64q-48 -24 -103 -24h-195l6 41h42l32 231h-62l5 42h63l33 235h-41l5 41h195q95 0 147 -68t52 -171 q0 -28 -4 -56z"/>
<glyph glyph-name="Ntilde" horiz-adv-x="531" unicode="Ñ" d="M544 549h-41l-78 -549h-45l-200 429l-54 -388h42l-6 -41h-132l6 41h42l71 508h-41l5 41h89l198 -426l54 385h-41l5 41h131zM484 716q-15 -34 -42 -54t-57 -19q-15 0 -25 5t-20 14q-16 13 -28 13q-12 1 -24 -9t-19 -23l-21 3q15 34 42 54t57 20q18 0 28 -5t20 -15 q13 -13 24 -13q13 0 25 10t20 23z"/>
<glyph glyph-name="Ograve" d="M341 542q-29 0 -59 -19t-54 -53t-42 -79t-25 -95q-4 -29 -4 -58q-1 -82 31 -136t84 -53q30 0 59 19q29 20 54 54t43 80t24 94q4 29 4 58q0 82 -32 135t-83 53zM499 296q-7 -58 -31 -113t-59 -99t-77 -68q-42 -25 -87 -25q-85 1 -133 69t-48 173q0 31 4 63q9 60 33 116 q23 56 59 98t80 67q44 24 91 24q39 0 71 -19q32 -18 55 -52t35 -78t11 -95q0 -31 -4 -61zM403 652l-20 -2l-130 48q-7 3 -13 11t-6 21q2 12 12 22t22 9q17 0 35 -18z" unicode="Ò"/>
<glyph glyph-name="Oacute" d="M341 542q-29 0 -59 -19t-54 -53t-42 -79t-25 -95q-4 -29 -4 -58q-1 -82 31 -136t84 -53q30 0 59 19q29 20 54 54t43 80t24 94q4 29 4 58q0 82 -32 135t-83 53zM499 296q-7 -58 -31 -113t-59 -99t-77 -68q-42 -25 -87 -25q-85 1 -133 69t-48 173q0 31 4 63q9 60 33 116 q23 56 59 98t80 67q44 24 91 24q39 0 71 -19q32 -18 55 -52t35 -78t11 -95q0 -31 -4 -61zM503 728q-2 -13 -11 -21t-18 -11l-143 -48l-19 3l125 90q23 18 40 18q12 0 19 -9t7 -22z" unicode="Ó"/>
<glyph glyph-name="Ocircumflex" d="M341 542q-29 0 -59 -19t-54 -53t-42 -79t-25 -95q-4 -29 -4 -58q-1 -82 31 -136t84 -53q30 0 59 19q29 20 54 54t43 80t24 94q4 29 4 58q0 82 -32 135t-83 53zM499 296q-7 -58 -31 -113t-59 -99t-77 -68q-42 -25 -87 -25q-85 1 -133 69t-48 173q0 31 4 63q9 60 33 116 q23 56 59 98t80 67q44 24 91 24q39 0 71 -19q32 -18 55 -52t35 -78t11 -95q0 -31 -4 -61zM476 646l-18 -11l-115 65l-131 -65l-17 11l158 130z" unicode="Ô"/>
<glyph glyph-name="Otilde" d="M341 542q-29 0 -59 -19t-54 -53t-42 -79t-25 -95q-4 -29 -4 -58q-1 -82 31 -136t84 -53q30 0 59 19q29 20 54 54t43 80t24 94q4 29 4 58q0 82 -32 135t-83 53zM499 296q-7 -58 -31 -113t-59 -99t-77 -68q-42 -25 -87 -25q-85 1 -133 69t-48 173q0 31 4 63q9 60 33 116 q23 56 59 98t80 67q44 24 91 24q39 0 71 -19q32 -18 55 -52t35 -78t11 -95q0 -31 -4 -61zM484 716q-15 -34 -42 -54t-57 -19q-15 0 -25 5t-20 14q-16 13 -28 13q-12 1 -24 -9t-19 -23l-21 3q15 34 42 54t57 20q18 0 28 -5t20 -15q13 -13 24 -13q13 0 25 10t20 23z" unicode="Õ"/>
<glyph glyph-name="Odieresis" d="M341 542q-29 0 -59 -19t-54 -53t-42 -79t-25 -95q-4 -29 -4 -58q-1 -82 31 -136t84 -53q30 0 59 19q29 20 54 54t43 80t24 94q4 29 4 58q0 82 -32 135t-83 53zM499 296q-7 -58 -31 -113t-59 -99t-77 -68q-42 -25 -87 -25q-85 1 -133 69t-48 173q0 31 4 63q9 60 33 116 q23 56 59 98t80 67q44 24 91 24q39 0 71 -19q32 -18 55 -52t35 -78t11 -95q0 -31 -4 -61zM480 686q-2 -19 -18 -32t-34 -13q-16 0 -28 11t-12 27v4v3q2 19 18 33t35 14q17 0 28 -13t11 -34zM335 687q-1 -19 -17 -33t-35 -13q-17 -1 -29 11t-11 28v4v3q1 19 17 33t35 14 q17 0 29 -13t11 -34z" unicode="Ö"/>
<glyph glyph-name="multiply" horiz-adv-x="0" unicode="×"/>
<glyph glyph-name="Oslash" d="M115 54q-51 68 -51 180q0 30 4 62q9 60 33 116q23 56 59 98t80 67q44 24 91 24q73 0 121 -64l61 87l25 -16l-68 -100q33 -64 33 -152q0 -30 -4 -60q-7 -58 -31 -113t-59 -99t-77 -68q-42 -25 -87 -25q-62 0 -108 40l-62 -89l-26 17zM173 137l248 356q-31 49 -80 49 q-29 0 -59 -19t-54 -53t-42 -79t-25 -95q-4 -30 -4 -58q0 -58 16 -101zM438 462l-250 -358q32 -55 84 -55q30 0 59 19q29 20 54 54t43 80t24 94q4 28 4 56q0 61 -18 110z" unicode="Ø"/>
<glyph glyph-name="Ugrave" horiz-adv-x="513" unicode="Ù" d="M543 549h-41l-53 -373q-12 -88 -67 -138t-140 -49q-72 1 -116 37t-44 111q0 18 3 39l53 373h-42l5 41h167l-5 -41h-41l-53 -373q-2 -18 -2 -34q-1 -52 25 -78t72 -27q54 1 90 37t45 102l53 373h-42l5 41h133zM403 652l-20 -2l-130 48q-7 3 -13 11t-6 21q2 12 12 22t22 9 q17 0 35 -18z"/>
<glyph glyph-name="Uacute" horiz-adv-x="513" unicode="Ú" d="M543 549h-41l-53 -373q-12 -88 -67 -138t-140 -49q-72 1 -116 37t-44 111q0 18 3 39l53 373h-42l5 41h167l-5 -41h-41l-53 -373q-2 -18 -2 -34q-1 -52 25 -78t72 -27q54 1 90 37t45 102l53 373h-42l5 41h133zM488 728q-2 -13 -11 -21t-18 -11l-143 -48l-19 3l125 90 q23 18 40 18q12 0 19 -9t7 -22z"/>
<glyph glyph-name="Ucircumflex" horiz-adv-x="513" unicode="Û" d="M543 549h-41l-53 -373q-12 -88 -67 -138t-140 -49q-72 1 -116 37t-44 111q0 18 3 39l53 373h-42l5 41h167l-5 -41h-41l-53 -373q-2 -18 -2 -34q-1 -52 25 -78t72 -27q54 1 90 37t45 102l53 373h-42l5 41h133zM485 650l-18 -11l-115 65l-131 -65l-17 11l158 130z"/>
<glyph glyph-name="Udieresis" horiz-adv-x="513" unicode="Ü" d="M543 549h-41l-53 -373q-12 -88 -67 -138t-140 -49q-72 1 -116 37t-44 111q0 18 3 39l53 373h-42l5 41h167l-5 -41h-41l-53 -373q-2 -18 -2 -34q-1 -52 25 -78t72 -27q54 1 90 37t45 102l53 373h-42l5 41h133zM494 690q-2 -19 -18 -32t-34 -13q-16 0 -28 11t-12 27v4v3 q2 19 18 33t35 14q17 0 28 -13t11 -34zM349 691q-1 -19 -17 -33t-35 -13q-17 -1 -29 11t-11 28v4v3q1 19 17 33t35 14q17 0 29 -13t11 -34z"/>
<glyph glyph-name="Yacute" horiz-adv-x="433" unicode="Ý" d="M476 549h-38q-24 -161 -69 -293t-105 -227t-132 -146q-71 -51 -147 -51q-49 0 -80 22t-31 54q0 3 1 5v5q4 24 23 40t42 17q22 1 36 -13t14 -35q0 -2 -1 -4v-5q-1 -12 -9 -22t-16 -17q14 -3 39 -3q41 3 83 29t76 72l-60 572h-39l5 41h175l-5 -41h-44l45 -479q1 3 6 12 q17 30 33 66t37 94t41 136t33 171h-41l5 41h128zM442 716q-2 -13 -11 -21t-18 -11l-143 -48l-19 3l125 90q23 18 40 18q12 0 19 -9t7 -22z"/>
<glyph glyph-name="Thorn" horiz-adv-x="478" unicode="Þ" d="M383 317q2 12 2 24q0 49 -25 77t-68 28h-73l-36 -259h72q48 0 84 36t44 94zM472 317q-5 -35 -25 -67q-21 -32 -51 -56t-68 -36t-78 -12h-72l-15 -105h41l-6 -41h-167l6 41h41l72 508h-42l5 41h168l-5 -41h-42l-9 -63h73q76 0 126 -41t50 -106q0 -11 -2 -22z"/>
<glyph glyph-name="germandbls" horiz-adv-x="491" unicode="ß" d="M446 158q-5 -40 -24 -70t-47 -51q-27 -21 -59 -32t-62 -11q-9 0 -23 3t-20 5l3 19q54 9 94 47t47 90q0 4 1 11q1 5 1 10q0 45 -27 77t-69 38l4 34q45 12 71 38t31 75q2 15 2 29q0 42 -18 68t-49 25q-22 1 -38 -11t-26 -32t-16 -41q-6 -22 -9 -46l-60 -433h-126l6 41h41 l54 383q4 33 18 64t37 57t56 41t74 15q63 0 104 -32t41 -97q0 -14 -2 -31t-14 -37t-32 -40q-18 -20 -39 -34t-39 -19q45 -9 80 -49t35 -88v-8q-1 -5 -1 -8z"/>
<glyph glyph-name="agrave" horiz-adv-x="496" unicode="à" d="M320 213q3 20 3 39q1 54 -19 91t-47 37q-35 0 -68 -49q-15 -23 -27 -54t-15 -64q-3 -24 -3 -45q0 -54 18 -88t48 -35q16 0 33 13t33 36t28 54t16 65zM469 72q-5 -35 -33 -60t-63 -25q-31 1 -52 21t-21 52v7q1 5 1 7q-21 -38 -59 -62t-69 -25q-54 0 -88 51t-34 129 q0 23 3 46q6 45 24 86t42 72q26 31 56 49t61 17q32 0 62 -25t40 -64l7 48q2 16 16 29t31 13t27 -12t10 -30l-46 -324q0 -14 8 -23t20 -9q14 0 24 10t12 22l5 36h21zM388 498l-20 -2l-130 48q-7 3 -13 11t-6 21q1 12 11 22t23 9q17 0 35 -18z"/>
<glyph glyph-name="aacute" horiz-adv-x="496" unicode="á" d="M320 213q3 20 3 39q1 54 -19 91t-47 37q-35 0 -68 -49q-15 -23 -27 -54t-15 -64q-3 -24 -3 -45q0 -54 18 -88t48 -35q16 0 33 13t33 36t28 54t16 65zM469 72q-5 -35 -33 -60t-63 -25q-31 1 -52 21t-21 52v7q1 5 1 7q-21 -38 -59 -62t-69 -25q-54 0 -88 51t-34 129 q0 23 3 46q6 45 24 86t42 72q26 31 56 49t61 17q32 0 62 -25t40 -64l7 48q2 16 16 29t31 13t27 -12t10 -30l-46 -324q0 -14 8 -23t20 -9q14 0 24 10t12 22l5 36h21zM465 574q-2 -13 -11 -21t-18 -11l-143 -48l-19 3l125 90q23 18 40 18q12 0 19 -9t7 -22z"/>
<glyph glyph-name="acircumflex" horiz-adv-x="496" unicode="â" d="M320 213q3 20 3 39q1 54 -19 91t-47 37q-35 0 -68 -49q-15 -23 -27 -54t-15 -64q-3 -24 -3 -45q0 -54 18 -88t48 -35q16 0 33 13t33 36t28 54t16 65zM469 72q-5 -35 -33 -60t-63 -25q-31 1 -52 21t-21 52v7q1 5 1 7q-21 -38 -59 -62t-69 -25q-54 0 -88 51t-34 129 q0 23 3 46q6 45 24 86t42 72q26 31 56 49t61 17q32 0 62 -25t40 -64l7 48q2 16 16 29t31 13t27 -12t10 -30l-46 -324q0 -14 8 -23t20 -9q14 0 24 10t12 22l5 36h21zM461 492l-18 -11l-115 65l-131 -65l-17 11l158 130z"/>
<glyph glyph-name="atilde" horiz-adv-x="496" unicode="ã" d="M320 213q3 20 3 39q1 54 -19 91t-47 37q-35 0 -68 -49q-15 -23 -27 -54t-15 -64q-3 -24 -3 -45q0 -54 18 -88t48 -35q16 0 33 13t33 36t28 54t16 65zM469 72q-5 -35 -33 -60t-63 -25q-31 1 -52 21t-21 52v7q1 5 1 7q-21 -38 -59 -62t-69 -25q-54 0 -88 51t-34 129 q0 23 3 46q6 45 24 86t42 72q26 31 56 49t61 17q32 0 62 -25t40 -64l7 48q2 16 16 29t31 13t27 -12t10 -30l-46 -324q0 -14 8 -23t20 -9q14 0 24 10t12 22l5 36h21zM462 562q-15 -34 -42 -54t-57 -19q-15 0 -25 5t-20 14q-16 13 -28 13q-12 1 -24 -9t-19 -23l-21 3 q15 34 42 54t57 20q18 0 28 -5t20 -15q13 -13 24 -13q13 0 25 10t20 23z"/>
<glyph glyph-name="adieresis" horiz-adv-x="496" unicode="ä" d="M320 213q3 20 3 39q1 54 -19 91t-47 37q-35 0 -68 -49q-15 -23 -27 -54t-15 -64q-3 -24 -3 -45q0 -54 18 -88t48 -35q16 0 33 13t33 36t28 54t16 65zM469 72q-5 -35 -33 -60t-63 -25q-31 1 -52 21t-21 52v7q1 5 1 7q-21 -38 -59 -62t-69 -25q-54 0 -88 51t-34 129 q0 23 3 46q6 45 24 86t42 72q26 31 56 49t61 17q32 0 62 -25t40 -64l7 48q2 16 16 29t31 13t27 -12t10 -30l-46 -324q0 -14 8 -23t20 -9q14 0 24 10t12 22l5 36h21zM453 531q-1 -19 -17 -32t-35 -13q-17 0 -29 11t-11 27v4v3q2 19 18 33t35 14q17 0 28 -13t11 -34zM308 532 q-2 -18 -18 -32t-34 -14q-16 0 -28 12t-12 27v4v3q2 19 18 33t34 14q16 0 28 -13t12 -34z"/>
<glyph glyph-name="aring" horiz-adv-x="496" unicode="å" d="M320 213q3 20 3 39q1 54 -19 91t-47 37q-35 0 -68 -49q-15 -23 -27 -54t-15 -64q-3 -24 -3 -45q0 -54 18 -88t48 -35q16 0 33 13t33 36t28 54t16 65zM469 72q-5 -35 -33 -60t-63 -25q-31 1 -52 21t-21 52v7q1 5 1 7q-21 -38 -59 -62t-69 -25q-54 0 -88 51t-34 129 q0 23 3 46q6 45 24 86t42 72q26 31 56 49t61 17q32 0 62 -25t40 -64l7 48q2 16 16 29t31 13t27 -12t10 -30l-46 -324q0 -14 8 -23t20 -9q14 0 24 10t12 22l5 36h21zM372 558q0 33 -28 33q-13 0 -24 -10t-13 -23q0 -33 28 -33q14 0 25 10t12 23zM416 558q-4 -32 -30 -54 t-58 -23q-28 0 -47 19t-19 47q0 2 1 6v5q5 32 31 54t56 23q29 0 48 -19t19 -47q0 -2 -1 -6v-5z"/>
<glyph glyph-name="ae" horiz-adv-x="658" unicode="æ" d="M572 334q0 1 1 6v6q1 24 -13 38t-32 14q-22 0 -40 -14t-33 -40q-13 -24 -23 -53t-14 -59q68 0 108 32t46 70zM315 213q3 22 3 43q0 52 -18 88t-43 36q-35 0 -68 -49q-15 -23 -27 -54t-15 -64q-3 -24 -3 -45q0 -54 18 -88t48 -35q16 0 32 13t31 36q32 50 42 119zM320 110 q-28 -62 -70 -92t-77 -31q-54 0 -88 51t-34 129q0 23 3 46q6 45 24 86t42 72q26 31 56 49t61 17q32 0 62 -25t40 -64l7 48q2 16 16 29t31 13q15 0 25 -9t11 -23q51 31 102 31q65 1 95 -29t31 -70v-7q-1 -6 -1 -7q-8 -54 -73 -90t-170 -36q-4 -25 -4 -48q1 -58 23 -86t59 -28 q31 0 59 24t43 62l33 -9q-20 -53 -60 -87t-106 -34q-54 0 -90 32t-50 86z"/>
<glyph glyph-name="ccedilla" horiz-adv-x="409" unicode="ç" d="M148 4q-45 20 -71 66t-26 104q0 20 3 39q6 45 26 85t50 70q30 31 66 48t74 17q61 -1 95 -35t34 -81v-8q-1 -5 -1 -8q-4 -30 -23 -48t-44 -18q-22 0 -36 14t-14 36v3v4q3 20 19 36t37 20h14q-9 18 -28 29t-40 11q-53 0 -85 -49t-43 -126q-4 -30 -4 -56q0 -55 20 -87 t63 -33q32 -1 58 21t42 58l31 -11q-22 -53 -62 -83t-95 -30q-14 0 -21 1l-28 -24q23 -1 39 -15t16 -34l-1 -4v-4q-5 -35 -43 -55t-82 -20h-16l3 24h26q17 0 30 9t15 25q0 16 -10 25t-25 9h-48z"/>
<glyph glyph-name="egrave" horiz-adv-x="411" unicode="è" d="M311 334q0 1 1 7v6q0 23 -13 37t-32 14q-21 0 -39 -14t-34 -40q-14 -24 -24 -54t-13 -58q69 0 109 32t45 70zM270 437q66 1 96 -29t30 -70v-7q-1 -6 -1 -7q-8 -54 -73 -90t-170 -36q-4 -25 -4 -48q0 -58 22 -86t60 -28q31 0 59 24t44 62l32 -9q-20 -53 -60 -87t-106 -34 q-69 0 -109 52t-39 129q0 20 3 40q8 45 26 85t46 72t66 49q37 18 78 18zM366 498l-20 -2l-130 48q-7 3 -13 11t-6 21q1 12 11 22t23 9q17 0 35 -18z"/>
<glyph glyph-name="eacute" horiz-adv-x="411" unicode="é" d="M311 334q0 1 1 7v6q0 23 -13 37t-32 14q-21 0 -39 -14t-34 -40q-14 -24 -24 -54t-13 -58q69 0 109 32t45 70zM270 437q66 1 96 -29t30 -70v-7q-1 -6 -1 -7q-8 -54 -73 -90t-170 -36q-4 -25 -4 -48q0 -58 22 -86t60 -28q31 0 59 24t44 62l32 -9q-20 -53 -60 -87t-106 -34 q-69 0 -109 52t-39 129q0 20 3 40q8 45 26 85t46 72t66 49q37 18 78 18zM408 574q-2 -13 -11 -21t-18 -11l-143 -48l-19 3l125 90q23 18 40 18q12 0 19 -9t7 -22z"/>
<glyph glyph-name="ecircumflex" horiz-adv-x="411" unicode="ê" d="M311 334q0 1 1 7v6q0 23 -13 37t-32 14q-21 0 -39 -14t-34 -40q-14 -24 -24 -54t-13 -58q69 0 109 32t45 70zM270 437q66 1 96 -29t30 -70v-7q-1 -6 -1 -7q-8 -54 -73 -90t-170 -36q-4 -25 -4 -48q0 -58 22 -86t60 -28q31 0 59 24t44 62l32 -9q-20 -53 -60 -87t-106 -34 q-69 0 -109 52t-39 129q0 20 3 40q8 45 26 85t46 72t66 49q37 18 78 18zM435 492l-18 -11l-115 65l-131 -65l-17 11l158 130z"/>
<glyph glyph-name="edieresis" horiz-adv-x="411" unicode="ë" d="M311 334q0 1 1 7v6q0 23 -13 37t-32 14q-21 0 -39 -14t-34 -40q-14 -24 -24 -54t-13 -58q69 0 109 32t45 70zM270 437q66 1 96 -29t30 -70v-7q-1 -6 -1 -7q-8 -54 -73 -90t-170 -36q-4 -25 -4 -48q0 -58 22 -86t60 -28q31 0 59 24t44 62l32 -9q-20 -53 -60 -87t-106 -34 q-69 0 -109 52t-39 129q0 20 3 40q8 45 26 85t46 72t66 49q37 18 78 18zM437 531q-1 -19 -17 -32t-35 -13q-17 0 -29 11t-11 27v4v3q2 19 18 33t35 14q17 0 28 -13t11 -34zM292 532q-2 -18 -18 -32t-34 -14q-16 0 -28 12t-12 27v4v3q2 19 18 33t34 14q16 0 28 -13t12 -34z "/>
<glyph glyph-name="igrave" horiz-adv-x="256" unicode="ì" d="M227 72q-5 -35 -33 -60t-63 -25q-32 0 -53 21t-21 53q0 3 1 5v6l50 346h83l-49 -346q0 -16 8 -24t19 -8q15 0 25 10t12 22l5 36h21zM215 498l-20 -2l-130 48q-7 3 -13 11t-6 21q2 12 12 22t22 9q17 0 35 -18z"/>
<glyph glyph-name="iacute" horiz-adv-x="256" unicode="í" d="M227 72q-5 -35 -33 -60t-63 -25q-32 0 -53 21t-21 53q0 3 1 5v6l50 346h83l-49 -346q0 -16 8 -24t19 -8q15 0 25 10t12 22l5 36h21zM323 574q-2 -13 -11 -21t-18 -11l-143 -48l-19 3l125 90q23 18 40 18q12 0 19 -9t7 -22z"/>
<glyph glyph-name="icircumflex" horiz-adv-x="256" unicode="î" d="M227 72q-5 -35 -33 -60t-63 -25q-32 0 -53 21t-21 53q0 3 1 5v6l50 346h83l-49 -346q0 -16 8 -24t19 -8q15 0 25 10t12 22l5 36h21zM334 492l-18 -11l-115 65l-131 -65l-17 11l158 130z"/>
<glyph glyph-name="idieresis" horiz-adv-x="256" unicode="ï" d="M227 72q-5 -35 -33 -60t-63 -25q-32 0 -53 21t-21 53q0 3 1 5v6l50 346h83l-49 -346q0 -16 8 -24t19 -8q15 0 25 10t12 22l5 36h21zM306 531q-2 -19 -18 -32t-34 -13q-16 0 -28 11t-12 27v4v3q2 19 18 33t35 14q17 0 28 -13t11 -34zM161 532q-1 -18 -17 -32t-35 -14 q-17 0 -29 12t-11 27v4v3q1 19 17 33t35 14q17 0 29 -13t11 -34z"/>
<glyph glyph-name="eth" horiz-adv-x="483" unicode="ð" d="M355 209q3 9 3 21v19q-3 29 -32 47t-61 18q-25 0 -45 -14t-36 -36q-14 -22 -23 -48t-13 -53q-2 -15 -2 -30q0 -47 21 -76t56 -29q53 0 87 44t45 137zM447 231q-15 -106 -75 -174t-154 -68q-30 0 -58 12t-52 34q-24 23 -38 53t-14 65q0 13 2 25q6 42 24 76t45 58t59 38 q32 12 63 12q37 0 64 -13t45 -35v16l1 15q0 86 -21 139l-77 -58l-51 11l110 83q-14 22 -34 35t-44 13q-20 0 -32 -2t-21 -4l-1 34q12 4 30 6t37 1q64 0 113 -48l70 54l52 -11l-96 -72q59 -80 59 -213q0 -40 -6 -82z"/>
<glyph glyph-name="ntilde" d="M498 72q-4 -35 -32 -60t-64 -25q-32 0 -53 21t-21 53q0 3 1 5v6l36 254q0 22 -10 34t-27 13q-19 0 -45 -19t-52 -54l-30 -40l-37 -260h-84l48 343q0 15 -8 23t-19 9q-13 0 -23 -9t-13 -23l-5 -36h-22l5 36q5 35 33 60t64 25q30 0 52 -20t22 -53q0 -2 -1 -6v-6l-5 -26 l29 37q27 37 58 60t68 23q38 1 63 -25t25 -64v-7q-1 -5 -1 -8l-37 -261q0 -14 8 -23t20 -9q13 0 23 10t13 22l5 36h21zM433 562q-15 -34 -42 -54t-57 -19q-14 0 -24 5t-21 14q-16 13 -28 13q-12 1 -24 -9t-19 -23l-21 3q15 34 42 54t57 20q18 0 28 -5t20 -15q13 -13 24 -13 q12 0 24 10t21 23z" unicode="ñ"/>
<glyph glyph-name="ograve" horiz-adv-x="438" unicode="ò" d="M277 379q-21 0 -43 -13t-40 -36q-18 -24 -30 -54t-17 -64q-3 -19 -3 -38q0 -56 24 -92t62 -37q44 0 82 49q18 24 30 54t18 64q3 18 3 36q0 57 -24 94t-62 37zM402 212q-8 -46 -26 -87t-46 -72t-62 -49t-70 -17q-64 0 -106 53t-41 133q0 19 3 39q6 46 26 87t48 72t64 49 q34 18 70 17q63 -1 103 -53t40 -131q0 -20 -3 -41zM378 498l-20 -2l-130 48q-7 3 -13 11t-6 21q1 12 11 22t23 9q17 0 35 -18z"/>
<glyph glyph-name="oacute" horiz-adv-x="438" unicode="ó" d="M277 379q-21 0 -43 -13t-40 -36q-18 -24 -30 -54t-17 -64q-3 -19 -3 -38q0 -56 24 -92t62 -37q44 0 82 49q18 24 30 54t18 64q3 18 3 36q0 57 -24 94t-62 37zM402 212q-8 -46 -26 -87t-46 -72t-62 -49t-70 -17q-64 0 -106 53t-41 133q0 19 3 39q6 46 26 87t48 72t64 49 q34 18 70 17q63 -1 103 -53t40 -131q0 -20 -3 -41zM416 574q-2 -13 -11 -21t-18 -11l-143 -48l-19 3l125 90q23 18 40 18q12 0 19 -9t7 -22z"/>
<glyph glyph-name="ocircumflex" horiz-adv-x="438" unicode="ô" d="M277 379q-21 0 -43 -13t-40 -36q-18 -24 -30 -54t-17 -64q-3 -19 -3 -38q0 -56 24 -92t62 -37q44 0 82 49q18 24 30 54t18 64q3 18 3 36q0 57 -24 94t-62 37zM402 212q-8 -46 -26 -87t-46 -72t-62 -49t-70 -17q-64 0 -106 53t-41 133q0 19 3 39q6 46 26 87t48 72t64 49 q34 18 70 17q63 -1 103 -53t40 -131q0 -20 -3 -41zM435 492l-18 -11l-115 65l-131 -65l-17 11l158 130z"/>
<glyph glyph-name="otilde" horiz-adv-x="438" unicode="õ" d="M277 379q-21 0 -43 -13t-40 -36q-18 -24 -30 -54t-17 -64q-3 -19 -3 -38q0 -56 24 -92t62 -37q44 0 82 49q18 24 30 54t18 64q3 18 3 36q0 57 -24 94t-62 37zM402 212q-8 -46 -26 -87t-46 -72t-62 -49t-70 -17q-64 0 -106 53t-41 133q0 19 3 39q6 46 26 87t48 72t64 49 q34 18 70 17q63 -1 103 -53t40 -131q0 -20 -3 -41zM426 562q-15 -34 -42 -54t-57 -19q-15 0 -25 5t-20 14q-16 13 -28 13q-12 1 -24 -9t-19 -23l-21 3q15 34 42 54t57 20q18 0 28 -5t20 -15q13 -13 24 -13q13 0 25 10t20 23z"/>
<glyph glyph-name="odieresis" horiz-adv-x="438" unicode="ö" d="M277 379q-21 0 -43 -13t-40 -36q-18 -24 -30 -54t-17 -64q-3 -19 -3 -38q0 -56 24 -92t62 -37q44 0 82 49q18 24 30 54t18 64q3 18 3 36q0 57 -24 94t-62 37zM402 212q-8 -46 -26 -87t-46 -72t-62 -49t-70 -17q-64 0 -106 53t-41 133q0 19 3 39q6 46 26 87t48 72t64 49 q34 18 70 17q63 -1 103 -53t40 -131q0 -20 -3 -41zM430 531q-2 -19 -18 -32t-34 -13q-16 0 -28 11t-12 27v4v3q2 19 18 33t35 14q17 0 28 -13t11 -34zM285 532q-1 -18 -17 -32t-35 -14q-17 0 -29 12t-11 27v4v3q1 19 17 33t35 14q17 0 29 -13t11 -34z"/>
<glyph glyph-name="divide" horiz-adv-x="0" unicode="÷"/>
<glyph glyph-name="oslash" horiz-adv-x="438" unicode="ø" d="M362 212q2 17 2 34q0 47 -16 82l-169 -257q21 -26 54 -26q44 0 81 49q18 24 30 54t18 64zM328 358q-18 21 -49 21q-22 0 -43 -13t-39 -36q-19 -24 -31 -54t-17 -64q-2 -18 -2 -35q0 -44 15 -75zM404 212q-6 -46 -24 -86t-47 -72q-28 -32 -62 -50t-70 -17q-37 0 -66 18 l-42 -65l-30 13l47 71q-26 24 -41 62t-15 85q0 20 3 41q5 46 25 87t49 72t63 49t70 17q55 0 92 -39l42 63l29 -14l-50 -76q30 -48 30 -115q0 -22 -3 -44z"/>
<glyph glyph-name="ugrave" horiz-adv-x="519" unicode="ù" d="M493 72q-5 -35 -33 -60t-64 -25q-30 0 -52 20t-22 53q0 2 1 6v6q1 6 3 16t2 14l-27 -36q-29 -39 -57 -61t-65 -22q-39 -1 -63 25t-24 64v8q1 6 1 8l35 255q0 15 -8 23t-19 9q-13 0 -23 -9t-13 -23l-5 -36h-22l5 36q5 35 33 60t64 25q32 0 53 -21t21 -53q0 -3 -1 -5v-6 l-35 -249v-4l-1 -3q0 -17 11 -28t27 -11q19 0 41 17t51 55l29 38l37 260h84l-49 -346q0 -32 27 -32q13 0 23 9t13 23l5 36h22zM357 494l-20 -2l-130 48q-7 3 -13 11t-6 21q2 12 12 22t22 9q17 0 35 -18z"/>
<glyph glyph-name="uacute" horiz-adv-x="519" unicode="ú" d="M493 72q-5 -35 -33 -60t-64 -25q-30 0 -52 20t-22 53q0 2 1 6v6q1 6 3 16t2 14l-27 -36q-29 -39 -57 -61t-65 -22q-39 -1 -63 25t-24 64v8q1 6 1 8l35 255q0 15 -8 23t-19 9q-13 0 -23 -9t-13 -23l-5 -36h-22l5 36q5 35 33 60t64 25q32 0 53 -21t21 -53q0 -3 -1 -5v-6 l-35 -249v-4l-1 -3q0 -17 11 -28t27 -11q19 0 41 17t51 55l29 38l37 260h84l-49 -346q0 -32 27 -32q13 0 23 9t13 23l5 36h22zM433 570q-2 -13 -11 -21t-18 -11l-143 -48l-19 3l125 90q23 18 40 18q12 0 19 -9t7 -22z"/>
<glyph glyph-name="ucircumflex" horiz-adv-x="519" unicode="û" d="M493 72q-5 -35 -33 -60t-64 -25q-30 0 -52 20t-22 53q0 2 1 6v6q1 6 3 16t2 14l-27 -36q-29 -39 -57 -61t-65 -22q-39 -1 -63 25t-24 64v8q1 6 1 8l35 255q0 15 -8 23t-19 9q-13 0 -23 -9t-13 -23l-5 -36h-22l5 36q5 35 33 60t64 25q32 0 53 -21t21 -53q0 -3 -1 -5v-6 l-35 -249v-4l-1 -3q0 -17 11 -28t27 -11q19 0 41 17t51 55l29 38l37 260h84l-49 -346q0 -32 27 -32q13 0 23 9t13 23l5 36h22zM456 492l-18 -11l-115 65l-131 -65l-17 11l158 130z"/>
<glyph glyph-name="udieresis" horiz-adv-x="519" unicode="ü" d="M493 72q-5 -35 -33 -60t-64 -25q-30 0 -52 20t-22 53q0 2 1 6v6q1 6 3 16t2 14l-27 -36q-29 -39 -57 -61t-65 -22q-39 -1 -63 25t-24 64v8q1 6 1 8l35 255q0 15 -8 23t-19 9q-13 0 -23 -9t-13 -23l-5 -36h-22l5 36q5 35 33 60t64 25q32 0 53 -21t21 -53q0 -3 -1 -5v-6 l-35 -249v-4l-1 -3q0 -17 11 -28t27 -11q19 0 41 17t51 55l29 38l37 260h84l-49 -346q0 -32 27 -32q13 0 23 9t13 23l5 36h22zM446 531q-2 -19 -18 -32t-34 -13q-16 0 -28 11t-12 27v4v3q2 19 18 33t35 14q17 0 28 -13t11 -34zM301 532q-1 -18 -17 -32t-35 -14q-17 0 -29 12 t-11 27v4v3q1 19 17 33t35 14q17 0 29 -13t11 -34z"/>
<glyph glyph-name="yacute" horiz-adv-x="428" unicode="ý" d="M418 418q-19 -125 -53 -232q-33 -106 -81 -186t-106 -124t-123 -44q-37 0 -65 18t-29 48q0 2 1 4v4q4 23 23 40t43 17q22 -1 36 -15t14 -35l-1 -3v-4q-3 -23 -19 -35h2q8 -1 18 -1q39 4 78 34t67 75l-102 373q-5 17 -28 17q-13 1 -25 -9t-15 -25l-3 -28h-22l5 36 q5 37 34 61t63 24q30 0 52 -18t29 -43l73 -283q32 82 54 162t35 172h45zM443 576q-2 -13 -11 -21t-18 -11l-143 -48l-19 3l125 90q23 18 40 18q12 0 19 -9t7 -22z"/>
<glyph glyph-name="thorn" horiz-adv-x="464" unicode="þ" d="M341 212q3 21 3 41q0 55 -18 91t-48 35q-16 0 -33 -13t-33 -36q-16 -24 -28 -54t-16 -64q-3 -21 -3 -42q0 -54 19 -90t46 -36q36 0 68 49q16 23 27 54t16 65zM220 590l-33 -242q22 40 59 64t68 25q54 0 88 -51t34 -128q0 -23 -3 -46q-5 -46 -23 -86t-43 -72t-55 -50 t-61 -17q-33 -1 -63 25t-40 65l-34 -242h-84l106 755h84z"/>
<glyph glyph-name="OE" horiz-adv-x="771" unicode="Œ" d="M506 315q-42 13 -68 45t-27 71q0 2 1 8v7q2 22 16 49q-32 47 -80 47q-30 0 -59 -19t-53 -53t-42 -80q-18 -45 -25 -94q-4 -29 -4 -58q-1 -82 31 -136t83 -53q20 -1 41 9t40 26q-11 24 -11 51q0 11 2 25q8 56 52 100t103 55zM747 141q-22 -64 -85 -107t-141 -43 q-88 0 -136 56q-30 -26 -65 -41t-72 -15q-84 -1 -134 69t-50 176q0 30 4 60q10 60 34 116t60 98t80 67q44 24 92 24q75 0 124 -60q32 29 77 45t93 15q66 1 106 -27t40 -71v-7q-1 -5 -1 -7q-3 -25 -23 -43t-46 -18q-22 0 -37 15t-15 37q0 2 1 4v5q2 18 14 33t27 21 q-20 14 -50 14q-54 0 -92 -35t-45 -81q0 -3 -1 -8v-8q0 -41 25 -67t57 -28h5q6 -1 8 -1l-8 -48q-8 0 -10 -1q-47 -2 -89 -34t-49 -85v-7q-1 -4 -1 -6q0 -44 34 -72t79 -28q51 0 93 28t63 78z"/>
<glyph glyph-name="oe" horiz-adv-x="689" unicode="œ" d="M358 290q-9 42 -29 66t-52 23q-21 0 -43 -13t-40 -36q-18 -24 -30 -54t-17 -64q-3 -19 -3 -38q0 -56 24 -92t62 -37q26 1 54 23t53 65q-3 13 -3 31q0 21 4 49q5 41 20 77zM594 334q0 3 1 7v6q0 23 -13 37t-32 14q-22 0 -40 -14t-32 -40q-14 -24 -24 -54t-14 -58 q68 0 108 32t46 70zM553 437q65 0 95 -29t31 -69v-8q-1 -6 -1 -7q-8 -54 -73 -90t-170 -36q-4 -26 -4 -48q0 -58 23 -86t59 -28q32 0 60 24t43 62l32 -9q-20 -53 -60 -87t-105 -34q-47 0 -81 24t-50 65q-30 -44 -70 -69t-84 -25q-64 0 -106 53t-41 133q0 19 3 39q6 46 26 87 t48 72t64 49q34 18 70 17q44 0 76 -25t50 -69q31 43 74 69t91 25z"/>
<glyph glyph-name="Scaron" horiz-adv-x="418" unicode="Š" d="M391 148q-11 -78 -69 -118t-136 -39q-62 1 -106 41t-44 96v9q1 5 1 9q3 24 23 44t45 20q23 0 39 -15t15 -37l-1 -5v-4q-4 -21 -20 -37t-35 -19q-3 -1 -8 -1q7 -22 35 -40t65 -17q41 1 73 23t38 63v6q1 5 1 6q0 47 -61 98l-103 87q-29 24 -47 54t-19 61q0 3 1 7v7 q6 40 24 70q18 31 46 49t60 26q33 8 68 9q48 -1 88 -29t40 -76v-6q-1 -6 -1 -7q-4 -22 -22 -38t-41 -16q-20 0 -34 13t-13 32q0 2 1 5v4q2 16 13 29t25 18q-12 12 -28 20t-36 8q-40 0 -72 -24t-38 -59v-6q-1 -4 -1 -5q1 -18 9 -32t28 -31l119 -102q39 -33 59 -63t20 -69v-9 q-1 -6 -1 -10zM439 759l-164 -134l-126 134l20 11l117 -64l137 64z"/>
<glyph glyph-name="scaron" horiz-adv-x="380" unicode="š" d="M253 86q0 3 1 10t1 10q0 29 -16 57l-58 104l-108 -154q14 -37 41 -59t59 -22q29 0 53 15t27 39zM337 98q-8 -54 -55 -84t-108 -31q-51 0 -92 35t-59 97l136 193q-5 6 -13 21t-7 34q0 3 1 5v5q4 29 26 49t57 20q24 0 39 -16t15 -38q0 -3 -1 -5v-5q-2 -18 -14 -32t-19 -19 l67 -117q12 -22 20 -47t8 -49v-8q-1 -7 -1 -8zM417 613l-164 -134l-126 134l20 11l117 -64l137 64z"/>
<glyph glyph-name="Ydieresis" horiz-adv-x="433" unicode="Ÿ" d="M476 549h-38q-24 -161 -69 -293t-105 -227t-132 -146q-71 -51 -147 -51q-49 0 -80 22t-31 54q0 3 1 5v5q4 24 23 40t42 17q22 1 36 -13t14 -35q0 -2 -1 -4v-5q-1 -12 -9 -22t-16 -17q14 -3 39 -3q41 3 83 29t76 72l-60 572h-39l5 41h175l-5 -41h-44l45 -479q1 3 6 12 q17 30 33 66t37 94t41 136t33 171h-41l5 41h128zM440 686q-2 -19 -18 -32t-34 -13q-16 0 -28 11t-12 27v4v3q2 19 18 33t35 14q17 0 28 -13t11 -34zM295 687q-1 -19 -17 -33t-35 -13q-17 -1 -29 11t-11 28v4v3q1 19 17 33t35 14q17 0 29 -13t11 -34z"/>
<glyph glyph-name="circumflex" horiz-adv-x="333" unicode="ˆ" d="M361 542l-18 -11l-115 65l-131 -65l-17 11l158 130z"/>
<glyph glyph-name="tilde" horiz-adv-x="292" unicode="˜" d="M332 670q-15 -34 -42 -54t-57 -19q-15 0 -25 5t-20 14q-16 13 -28 13q-12 1 -24 -9t-19 -23l-21 3q15 34 42 54t57 20q18 0 28 -5t20 -15q13 -13 24 -13q13 0 25 10t20 23z"/>
<glyph glyph-name="endash" horiz-adv-x="574" unicode="–" d="M583 213h-575l6 43h575z"/>
<glyph glyph-name="emdash" horiz-adv-x="678" unicode="—" d="M688 213h-680l6 43h679z"/>
<glyph glyph-name="quoteleft" horiz-adv-x="227" unicode="‘" d="M228 432l-11 -14q-51 32 -73 66t-22 62q0 4 1 8v6q3 21 20 37t39 16q20 1 33 -13t13 -33q0 -1 -1 -3v-4q-3 -18 -17 -32t-31 -19q3 -23 17 -43t32 -34z"/>
<glyph glyph-name="quotesinglbase" horiz-adv-x="532" unicode="‚" d="M349 542q-29 0 -57 -19t-51 -53t-39 -79t-24 -95q-5 -33 -5 -65q1 -81 29 -131t78 -51q30 0 58 19q28 20 52 54t39 79q16 45 23 95q5 34 5 65q0 81 -29 131t-79 50zM498 296q-8 -59 -29 -114q-21 -54 -54 -98t-75 -68t-92 -25q-82 1 -128 67t-47 170q0 33 5 68 q10 62 32 117t56 98t78 67q42 24 90 23q83 1 126 -65t43 -168q0 -35 -5 -72z"/>
<glyph glyph-name="quotedblleft" horiz-adv-x="368" unicode="“" d="M213 432l-11 -14q-54 32 -75 66t-21 64q0 2 1 6v6q3 21 21 37t39 16q20 1 33 -13t13 -33q0 -1 -1 -3v-4q-2 -18 -16 -32t-32 -19q2 -23 16 -43t33 -34zM371 432l-12 -14q-54 32 -75 66t-21 64q0 2 1 6v6q3 21 21 37t39 16q20 1 33 -13t13 -33q0 -1 -1 -3v-4 q-1 -18 -15 -32t-32 -19q2 -23 16 -43t33 -34z"/>
<glyph glyph-name="quotedblright" horiz-adv-x="368" unicode="”" d="M222 560q-4 -31 -34 -68t-100 -74l-7 14q23 14 42 34t28 43q-15 4 -25 16t-10 27l1 4v4q3 21 21 37t39 16q20 1 33 -13t13 -33q0 -1 -1 -3v-4zM379 560q-4 -31 -33 -68t-99 -74l-9 14q24 14 42 34t28 43q-14 3 -24 17t-10 34q3 21 21 37t39 16q20 1 33 -13t13 -33 q0 -1 -1 -3v-4z"/>
<glyph glyph-name="dagger" horiz-adv-x="398" unicode="†" d="M385 308h-128l-67 -476h-71l67 476h-128l5 41h129l33 240h71l-33 -240h128z"/>
<glyph glyph-name="daggerdbl" horiz-adv-x="417" unicode="‡" d="M459 590q-44 -73 -86 -155q-43 -82 -77 -162t-58 -151t-32 -122h-102q20 91 84 212t183 295h-235l-13 -94h-35l25 177h346z"/>
<glyph glyph-name="ellipsis" horiz-adv-x="778" unicode="…" d="M618 98q20 0 33 -12t13 -31q0 -2 -1 -4v-5q-3 -22 -21 -38t-39 -15q-21 0 -33 13t-12 33v3v4q4 22 21 37t39 15zM359 98q20 0 33 -12t13 -33q0 -1 -1 -3v-4q-2 -22 -20 -38t-40 -15q-20 0 -32 13t-13 33v3v4q3 22 21 37t39 15zM100 98q20 0 33 -12t13 -33q0 -1 -1 -3v-4 q-3 -22 -21 -38t-39 -15q-21 0 -33 13t-12 33v3v4q2 22 20 37t40 15z"/>
<glyph glyph-name="perthousand" horiz-adv-x="790" unicode="‰" d="M449 112q0 3 1 7v7q0 27 -14 45t-33 18q-23 -1 -43 -23t-25 -54v-8q-1 -6 -1 -7q0 -27 13 -45t34 -19q23 0 43 23t25 56zM709 112q0 3 1 7v7q0 27 -14 45t-33 18q-23 0 -43 -23t-26 -54v-7q-1 -6 -1 -7q0 -28 14 -46t34 -19q23 0 43 23t25 56zM265 475q0 3 1 7v7 q0 27 -14 45t-34 19q-22 0 -42 -23t-25 -55v-7q-1 -6 -1 -7q0 -27 14 -45t33 -18q23 0 43 23t25 54zM482 112q-7 -48 -42 -82t-77 -34q-39 0 -65 28t-26 70v9q1 6 1 9q7 46 43 80t79 34q38 0 63 -28t25 -68v-9q-1 -7 -1 -9zM742 112q-6 -48 -42 -82t-78 -34q-38 0 -64 28 t-26 69v9q1 7 1 10q7 46 43 80t78 34q39 0 64 -28t25 -68v-9q-1 -7 -1 -9zM554 590l-464 -604l-19 17l347 551h-138q19 -25 19 -62v-8q-1 -6 -1 -9q-7 -47 -42 -81t-77 -34q-39 0 -65 28t-26 70v8q1 6 1 9q7 47 43 81t79 34h343z"/>
<glyph glyph-name="guilsinglleft" horiz-adv-x="463" unicode="‹" d="M408 159q-5 -35 -23 -65t-46 -54t-63 -36q-35 -14 -74 -14q-76 0 -120 40t-46 106l36 12q11 -51 37 -76t74 -25t87 32t47 85q0 4 1 8v7q0 44 -31 72t-76 29l7 48q35 0 72 32t43 82q0 3 1 8v9q0 39 -24 67t-70 28q-28 0 -51 -14q24 -10 24 -39l-1 -4v-4q-3 -23 -23 -41 t-44 -17q-22 0 -36 15t-14 36v3v4q6 44 58 76q25 15 55 23t62 8q70 0 114 -37t44 -94v-9q-1 -7 -1 -10q-7 -43 -41 -81t-81 -55q44 -8 74 -46t30 -89v-10q-1 -8 -1 -10z"/>
<glyph glyph-name="guilsinglright" horiz-adv-x="463" unicode="›" d="M401 167h-63l-23 -167h-84l23 167h-231l5 26q105 90 171 189t109 216h110q-24 -60 -64 -122t-86 -114q-46 -54 -88 -92q-43 -38 -74 -57h155l12 84h84l-12 -84h63z"/>
<glyph glyph-name="trademark" horiz-adv-x="781" unicode="™" d="M349 520h-31l5 37h-60l-40 -277h24l-4 -32h-104l4 32h25l39 277h-60l-5 -37h-33l9 70h240zM724 248h-107l4 32h18l4 212l-110 -244h-40l-39 245l-57 -213h24l-4 -32h-84l5 32h23l77 278h-28l4 32h89l40 -238l106 238h84l-5 -32h-27v-278h27z"/>
</font>
</defs>
</svg>
